{
  "accessors": [
    {
      "bufferView": 2,
      "componentType": 5126,
      "count": 1265,
      "max": [
        0.8380000591278076,
        1.0650001764297485,
        0.9396804571151733
      ],
      "min": [
        -0.8379999399185181,
        -1.065000057220459,
        0.0
      ],
      "type": "VEC3"
    },
    {
      "bufferView": 2,
      "byteOffset": 15180,
      "componentType": 5126,
      "count": 1265,
      "max": [
        1.0,
        1.0,
        1.0
      ],
      "min": [
        -1.0,
        -1.0,
        -1.0
      ],
      "type": "VEC3"
    },
    {
      "bufferView": 3,
      "componentType": 5126,
      "count": 1265,
      "max": [
        1.0,
        1.0,
        1.0,
        1.0
      ],
      "min": [
        -1.0,
        -1.0,
        -1.0,
        1.0
      ],
      "type": "VEC4"
    },
    {
      "bufferView": 1,
      "componentType": 5126,
      "count": 1265,
      "max": [
        1.0,
        0.9823356866836548
      ],
      "min": [
        0.0,
        0.0
      ],
      "type": "VEC2"
    },
    {
      "bufferView": 1,
      "byteOffset": 10120,
      "componentType": 5126,
      "count": 1265,
      "max": [
        1.0,
        0.9823356866836548
      ],
      "min": [
        0.0,
        0.0
      ],
      "type": "VEC2"
    },
    {
      "bufferView": 1,
      "byteOffset": 20240,
      "componentType": 5126,
      "count": 1265,
      "max": [
        1.0,
        0.9823356866836548
      ],
      "min": [
        0.0,
        0.0
      ],
      "type": "VEC2"
    },
    {
      "bufferView": 0,
      "componentType": 5125,
      "count": 2556,
      "type": "SCALAR"
    },
    {
      "bufferView": 2,
      "byteOffset": 30360,
      "componentType": 5126,
      "count": 10662,
      "max": [
        0.8067432045936584,
        0.9582326412200928,
        0.5742113590240479
      ],
      "min": [
        -0.8067431449890137,
        -1.0493005514144897,
        0.33275943994522095
      ],
      "type": "VEC3"
    },
    {
      "bufferView": 2,
      "byteOffset": 158304,
      "componentType": 5126,
      "count": 10662,
      "max": [
        1.0,
        1.0,
        1.0
      ],
      "min": [
        -1.0,
        -1.0,
        -1.0
      ],
      "type": "VEC3"
    },
    {
      "bufferView": 3,
      "byteOffset": 20240,
      "componentType": 5126,
      "count": 10662,
      "max": [
        0.38595688343048096,
        1.0,
        0.9999998807907104,
        1.0
      ],
      "min": [
        -1.0,
        -0.39146825671195984,
        -1.0,
        1.0
      ],
      "type": "VEC4"
    },
    {
      "bufferView": 1,
      "byteOffset": 30360,
      "componentType": 5126,
      "count": 10662,
      "max": [
        0.5670040249824524,
        0.9999999403953552
      ],
      "min": [
        0.0,
        0.0
      ],
      "type": "VEC2"
    },
    {
      "bufferView": 1,
      "byteOffset": 115656,
      "componentType": 5126,
      "count": 10662,
      "max": [
        0.5670040249824524,
        0.9999999403953552
      ],
      "min": [
        0.0,
        0.0
      ],
      "type": "VEC2"
    },
    {
      "bufferView": 1,
      "byteOffset": 200952,
      "componentType": 5126,
      "count": 10662,
      "max": [
        0.5670040249824524,
        0.9999999403953552
      ],
      "min": [
        0.0,
        0.0
      ],
      "type": "VEC2"
    },
    {
      "bufferView": 0,
      "byteOffset": 10224,
      "componentType": 5125,
      "count": 60672,
      "type": "SCALAR"
    },
    {
      "bufferView": 2,
      "byteOffset": 286248,
      "componentType": 5126,
      "count": 25708,
      "max": [
        0.9480223059654236,
        0.8695824146270752,
        0.6274329423904419
      ],
      "min": [
        -0.9603897929191589,
        -1.2137625217437744,
        0.04215043783187866
      ],
      "type": "VEC3"
    },
    {
      "bufferView": 2,
      "byteOffset": 594744,
      "componentType": 5126,
      "count": 25708,
      "max": [
        0.9999999403953552,
        0.9999997019767761,
        1.0
      ],
      "min": [
        -1.0,
        -0.9998732209205627,
        -0.999999463558197
      ],
      "type": "VEC3"
    },
    {
      "bufferView": 3,
      "byteOffset": 190832,
      "componentType": 5126,
      "count": 25708,
      "max": [
        0.9999862909317017,
        0.9995845556259155,
        0.9979404211044312,
        1.0
      ],
      "min": [
        -1.0,
        -1.0,
        -0.999999463558197,
        -1.0
      ],
      "type": "VEC4"
    },
    {
      "bufferView": 1,
      "byteOffset": 286248,
      "componentType": 5126,
      "count": 25708,
      "max": [
        0.9784348607063293,
        1.0000001192092896
      ],
      "min": [
        0.0,
        0.0
      ],
      "type": "VEC2"
    },
    {
      "bufferView": 1,
      "byteOffset": 491912,
      "componentType": 5126,
      "count": 25708,
      "max": [
        0.9784348607063293,
        1.0000001192092896
      ],
      "min": [
        0.0,
        0.0
      ],
      "type": "VEC2"
    },
    {
      "bufferView": 1,
      "byteOffset": 697576,
      "componentType": 5126,
      "count": 25708,
      "max": [
        0.9784348607063293,
        1.0000001192092896
      ],
      "min": [
        0.0,
        0.0
      ],
      "type": "VEC2"
    },
    {
      "bufferView": 0,
      "byteOffset": 252912,
      "componentType": 5125,
      "count": 132288,
      "type": "SCALAR"
    },
    {
      "bufferView": 2,
      "byteOffset": 903240,
      "componentType": 5126,
      "count": 9627,
      "max": [
        0.8209623098373413,
        0.9616075158119202,
        0.9095926284790039
      ],
      "min": [
        -0.0357280969619751,
        0.6634458303451538,
        0.6081586480140686
      ],
      "type": "VEC3"
    },
    {
      "bufferView": 2,
      "byteOffset": 1018764,
      "componentType": 5126,
      "count": 9627,
      "max": [
        0.999988317489624,
        1.0,
        0.9999850392341614
      ],
      "min": [
        -0.9994640946388245,
        -0.9999776482582092,
        -1.0
      ],
      "type": "VEC3"
    },
    {
      "bufferView": 3,
      "byteOffset": 602160,
      "componentType": 5126,
      "count": 9627,
      "max": [
        1.0,
        0.992627739906311,
        0.9859423041343689,
        1.0
      ],
      "min": [
        -0.9706601500511169,
        -0.9864319562911987,
        -0.997239351272583,
        -1.0
      ],
      "type": "VEC4"
    },
    {
      "bufferView": 1,
      "byteOffset": 903240,
      "componentType": 5126,
      "count": 9627,
      "max": [
        1.0000001192092896,
        1.0000001192092896
      ],
      "min": [
        0.0,
        0.0
      ],
      "type": "VEC2"
    },
    {
      "bufferView": 1,
      "byteOffset": 980256,
      "componentType": 5126,
      "count": 9627,
      "max": [
        1.0000001192092896,
        1.0000001192092896
      ],
      "min": [
        0.0,
        0.0
      ],
      "type": "VEC2"
    },
    {
      "bufferView": 1,
      "byteOffset": 1057272,
      "componentType": 5126,
      "count": 9627,
      "max": [
        1.0000001192092896,
        1.0000001192092896
      ],
      "min": [
        0.0,
        0.0
      ],
      "type": "VEC2"
    },
    {
      "bufferView": 0,
      "byteOffset": 782064,
      "componentType": 5125,
      "count": 50640,
      "type": "SCALAR"
    },
    {
      "bufferView": 2,
      "byteOffset": 1134288,
      "componentType": 5126,
      "count": 10641,
      "max": [
        0.026498138904571533,
        0.961657702922821,
        0.9070988297462463
      ],
      "min": [
        -0.8023113012313843,
        0.6154240369796753,
        0.607661247253418
      ],
      "type": "VEC3"
    },
    {
      "bufferView": 2,
      "byteOffset": 1261980,
      "componentType": 5126,
      "count": 10641,
      "max": [
        0.9998435378074646,
        0.9999451041221619,
        0.9999850988388062
      ],
      "min": [
        -0.9994602799415588,
        -0.9999935030937195,
        -0.9999994039535522
      ],
      "type": "VEC3"
    },
    {
      "bufferView": 3,
      "byteOffset": 756192,
      "componentType": 5126,
      "count": 10641,
      "max": [
        0.9999934434890747,
        0.9971331357955933,
        0.9986348152160645,
        1.0
      ],
      "min": [
        -0.972812831401825,
        -0.9957033395767212,
        -0.9993817210197449,
        -1.0
      ],
      "type": "VEC4"
    },
    {
      "bufferView": 1,
      "byteOffset": 1134288,
      "componentType": 5126,
      "count": 10641,
      "max": [
        1.0000001192092896,
        1.0000001192092896
      ],
      "min": [
        0.0,
        0.0
      ],
      "type": "VEC2"
    },
    {
      "bufferView": 1,
      "byteOffset": 1219416,
      "componentType": 5126,
      "count": 10641,
      "max": [
        1.0000001192092896,
        1.0000001192092896
      ],
      "min": [
        0.0,
        0.0
      ],
      "type": "VEC2"
    },
    {
      "bufferView": 1,
      "byteOffset": 1304544,
      "componentType": 5126,
      "count": 10641,
      "max": [
        1.0000001192092896,
        1.0000001192092896
      ],
      "min": [
        0.0,
        0.0
      ],
      "type": "VEC2"
    },
    {
      "bufferView": 0,
      "byteOffset": 984624,
      "componentType": 5125,
      "count": 50640,
      "type": "SCALAR"
    }
  ],
  "asset": {
    "extras": {
      "author": "Cody.Lovorn (https://sketchfab.com/Cody.Lovorn)",
      "license": "CC-BY-4.0 (http://creativecommons.org/licenses/by/4.0/)",
      "source": "https://sketchfab.com/3d-models/queen-sized-bed-629b78957c5f442b875755c5cd3bcf57",
      "title": "Queen Sized Bed"
    },
    "generator": "Sketchfab-14.62.0",
    "version": "2.0"
  },
  "bufferViews": [
    {
      "buffer": 0,
      "byteLength": 1187184,
      "name": "floatBufferViews",
      "target": 34963
    },
    {
      "buffer": 0,
      "byteLength": 1389672,
      "byteOffset": 1187184,
      "byteStride": 8,
      "name": "floatBufferViews",
      "target": 34962
    },
    {
      "buffer": 0,
      "byteLength": 1389672,
      "byteOffset": 2576856,
      "byteStride": 12,
      "name": "floatBufferViews",
      "target": 34962
    },
    {
      "buffer": 0,
      "byteLength": 926448,
      "byteOffset": 3966528,
      "byteStride": 16,
      "name": "floatBufferViews",
      "target": 34962
    }
  ],
  "buffers": [
    {
      "byteLength": 4892976,
      "uri": "scene.bin"
    }
  ],
  "images": [
    {
      "uri": "textures/Bed_Frame_Baked_baseColor.png"
    },
    {
      "uri": "textures/Bed_Frame_Baked_normal.png"
    },
    {
      "uri": "textures/Matress_Baked_baseColor.png"
    },
    {
      "uri": "textures/Matress_Baked_normal.png"
    },
    {
      "uri": "textures/Bed_Spread_Baked_baseColor.png"
    },
    {
      "uri": "textures/Bed_Spread_Baked_normal.png"
    },
    {
      "uri": "textures/Pillow01_Baked_baseColor.png"
    },
    {
      "uri": "textures/Pillow01_Baked_normal.png"
    },
    {
      "uri": "textures/Pillow02_Baked_baseColor.png"
    },
    {
      "uri": "textures/Pillow02_Baked_normal.png"
    }
  ],
  "materials": [
    {
      "doubleSided": true,
      "name": "Bed_Frame_Baked",
      "normalTexture": {
        "index": 1
      },
      "pbrMetallicRoughness": {
        "baseColorTexture": {
          "index": 0
        },
        "metallicFactor": 0.0,
        "roughnessFactor": 0.8211145618000169
      }
    },
    {
      "doubleSided": true,
      "name": "Matress_Baked",
      "normalTexture": {
        "index": 3
      },
      "pbrMetallicRoughness": {
        "baseColorTexture": {
          "index": 2
        },
        "metallicFactor": 0.0,
        "roughnessFactor": 0.8211145618000169
      }
    },
    {
      "doubleSided": true,
      "name": "Bed_Spread_Baked",
      "normalTexture": {
        "index": 5
      },
      "pbrMetallicRoughness": {
        "baseColorTexture": {
          "index": 4
        },
        "metallicFactor": 0.0,
        "roughnessFactor": 0.8211145618000169
      }
    },
    {
      "doubleSided": true,
      "name": "Pillow01_Baked",
      "normalTexture": {
        "index": 7
      },
      "pbrMetallicRoughness": {
        "baseColorTexture": {
          "index": 6
        },
        "metallicFactor": 0.0,
        "roughnessFactor": 0.8211145618000169
      }
    },
    {
      "doubleSided": true,
      "name": "Pillow02_Baked",
      "normalTexture": {
        "index": 9
      },
      "pbrMetallicRoughness": {
        "baseColorTexture": {
          "index": 8
        },
        "metallicFactor": 0.0,
        "roughnessFactor": 0.8211145618000169
      }
    }
  ],
  "meshes": [
    {
      "name": "Bed Frame_Baked_Bed Frame_Baked_0",
      "primitives": [
        {
          "attributes": {
            "NORMAL": 1,
            "POSITION": 0,
            "TANGENT": 2,
            "TEXCOORD_0": 3,
            "TEXCOORD_1": 4,
            "TEXCOORD_2": 5
          },
          "indices": 6,
          "material": 0,
          "mode": 4
        }
      ]
    },
    {
      "name": "Bed Frame_Baked_Matress_Baked_0",
      "primitives": [
        {
          "attributes": {
            "NORMAL": 8,
            "POSITION": 7,
            "TANGENT": 9,
            "TEXCOORD_0": 10,
            "TEXCOORD_1": 11,
            "TEXCOORD_2": 12
          },
          "indices": 13,
          "material": 1,
          "mode": 4
        }
      ]
    },
    {
      "name": "Bed Frame_Baked_Bed Spread_Baked_0",
      "primitives": [
        {
          "attributes": {
            "NORMAL": 15,
            "POSITION": 14,
            "TANGENT": 16,
            "TEXCOORD_0": 17,
            "TEXCOORD_1": 18,
            "TEXCOORD_2": 19
          },
          "indices": 20,
          "material": 2,
          "mode": 4
        }
      ]
    },
    {
      "name": "Bed Frame_Baked_Pillow01_Baked_0",
      "primitives": [
        {
          "attributes": {
            "NORMAL": 22,
            "POSITION": 21,
            "TANGENT": 23,
            "TEXCOORD_0": 24,
            "TEXCOORD_1": 25,
            "TEXCOORD_2": 26
          },
          "indices": 27,
          "material": 3,
          "mode": 4
        }
      ]
    },
    {
      "name": "Bed Frame_Baked_Pillow02_Baked_0",
      "primitives": [
        {
          "attributes": {
            "NORMAL": 29,
            "POSITION": 28,
            "TANGENT": 30,
            "TEXCOORD_0": 31,
            "TEXCOORD_1": 32,
            "TEXCOORD_2": 33
          },
          "indices": 34,
          "material": 4,
          "mode": 4
        }
      ]
    }
  ],
  "nodes": [
    {
      "children": [
        1
      ],
      "matrix": [
        1.0,
        0.0,
        0.0,
        0.0,
        0.0,
        2.220446049250313e-16,
        -1.0,
        0.0,
        0.0,
        1.0,
        2.220446049250313e-16,
        0.0,
        0.0,
        0.0,
        0.0,
        1.0
      ],
      "name": "Sketchfab_model"
    },
    {
      "children": [
        2
      ],
      "matrix": [
        0.009999999776482582,
        0.0,
        0.0,
        0.0,
        0.0,
        0.0,
        0.009999999776482582,
        0.0,
        0.0,
        -0.009999999776482582,
        0.0,
        0.0,
        0.0,
        0.0,
        0.0,
        1.0
      ],
      "name": "5c28b9eda3b64e5f9f99fc551f713db0.fbx"
    },
    {
      "children": [
        3
      ],
      "name": "RootNode"
    },
    {
      "children": [
        4,
        5,
        6,
        7,
        8
      ],
      "matrix": [
        100.0,
        0.0,
        0.0,
        0.0,
        0.0,
        -1.629206793918314e-05,
        -99.99999999999868,
        0.0,
        0.0,
        99.99999999999868,
        -1.629206793918314e-05,
        0.0,
        0.0,
        0.0,
        0.0,
        1.0
      ],
      "name": "Bed Frame_Baked"
    },
    {
      "mesh": 0,
      "name": "Bed Frame_Baked_Bed Frame_Baked_0"
    },
    {
      "mesh": 1,
      "name": "Bed Frame_Baked_Matress_Baked_0"
    },
    {
      "mesh": 2,
      "name": "Bed Frame_Baked_Bed Spread_Baked_0"
    },
    {
      "mesh": 3,
      "name": "Bed Frame_Baked_Pillow01_Baked_0"
    },
    {
      "mesh": 4,
      "name": "Bed Frame_Baked_Pillow02_Baked_0"
    }
  ],
  "samplers": [
    {
      "magFilter": 9729,
      "minFilter": 9987,
      "wrapS": 10497,
      "wrapT": 10497
    }
  ],
  "scene": 0,
  "scenes": [
    {
      "name": "Sketchfab_Scene",
      "nodes": [
        0
      ]
    }
  ],
  "textures": [
    {
      "sampler": 0,
      "source": 0
    },
    {
      "sampler": 0,
      "source": 1
    },
    {
      "sampler": 0,
      "source": 2
    },
    {
      "sampler": 0,
      "source": 3
    },
    {
      "sampler": 0,
      "source": 4
    },
    {
      "sampler": 0,
      "source": 5
    },
    {
      "sampler": 0,
      "source": 6
    },
    {
      "sampler": 0,
      "source": 7
    },
    {
      "sampler": 0,
      "source": 8
    },
    {
      "sampler": 0,
      "source": 9
    }
  ]
}
