{
  "accessors": [
    {
      "bufferView": 2,
      "componentType": 5126,
      "count": 32,
      "max": [
        1.0,
        1.0,
        1.0
      ],
      "min": [
        -1.0,
        -1.0,
        1.0
      ],
      "type": "VEC3"
    },
    {
      "bufferView": 2,
      "byteOffset": 384,
      "componentType": 5126,
      "count": 32,
      "max": [
        1.9095208969588384e-08,
        0.0,
        1.0
      ],
      "min": [
        1.9095208969588384e-08,
        0.0,
        1.0
      ],
      "type": "VEC3"
    },
    {
      "bufferView": 1,
      "componentType": 5126,
      "count": 32,
      "max": [
        0.6338303089141846,
        0.6360604166984558
      ],
      "min": [
        0.3648676574230194,
        0.43354740738868713
      ],
      "type": "VEC2"
    },
    {
      "bufferView": 0,
      "componentType": 5125,
      "count": 90,
      "type": "SCALAR"
    },
    {
      "bufferView": 2,
      "byteOffset": 768,
      "componentType": 5126,
      "count": 32,
      "max": [
        1.0,
        1.0,
        1.0
      ],
      "min": [
        -1.0,
        -1.0,
        1.0
      ],
      "type": "VEC3"
    },
    {
      "bufferView": 2,
      "byteOffset": 1152,
      "componentType": 5126,
      "count": 32,
      "max": [
        1.9095208969588384e-08,
        0.0,
        1.0
      ],
      "min": [
        1.9095208969588384e-08,
        0.0,
        1.0
      ],
      "type": "VEC3"
    },
    {
      "bufferView": 1,
      "byteOffset": 256,
      "componentType": 5126,
      "count": 32,
      "max": [
        0.6279638409614563,
        0.6424122452735901
      ],
      "min": [
        0.3225570321083069,
        0.4007251262664795
      ],
      "type": "VEC2"
    },
    {
      "bufferView": 0,
      "byteOffset": 360,
      "componentType": 5125,
      "count": 90,
      "type": "SCALAR"
    },
    {
      "bufferView": 2,
      "byteOffset": 1536,
      "componentType": 5126,
      "count": 62,
      "max": [
        1.0,
        1.0,
        1.0
      ],
      "min": [
        -1.0,
        -1.0,
        1.0
      ],
      "type": "VEC3"
    },
    {
      "bufferView": 2,
      "byteOffset": 2280,
      "componentType": 5126,
      "count": 62,
      "max": [
        1.9278909135778122e-08,
        0.0,
        1.0
      ],
      "min": [
        1.9278905583064443e-08,
        0.0,
        1.0
      ],
      "type": "VEC3"
    },
    {
      "bufferView": 1,
      "byteOffset": 512,
      "componentType": 5126,
      "count": 62,
      "max": [
        0.6509942412376404,
        0.66498863697052
      ],
      "min": [
        0.2339348942041397,
        0.3654038906097412
      ],
      "type": "VEC2"
    },
    {
      "bufferView": 0,
      "byteOffset": 720,
      "componentType": 5125,
      "count": 180,
      "type": "SCALAR"
    },
    {
      "bufferView": 2,
      "byteOffset": 3024,
      "componentType": 5126,
      "count": 320,
      "max": [
        0.8274213075637817,
        0.9183233976364136,
        0.0
      ],
      "min": [
        -0.7497968673706055,
        -0.9887112379074097,
        0.0
      ],
      "type": "VEC3"
    },
    {
      "bufferView": 2,
      "byteOffset": 6864,
      "componentType": 5126,
      "count": 320,
      "max": [
        0.0,
        0.0,
        1.0
      ],
      "min": [
        0.0,
        0.0,
        1.0
      ],
      "type": "VEC3"
    },
    {
      "bufferView": 1,
      "byteOffset": 1008,
      "componentType": 5126,
      "count": 320,
      "max": [
        0.6557261943817139,
        0.6400150656700134
      ],
      "min": [
        0.3034467399120331,
        0.33562391996383667
      ],
      "type": "VEC2"
    },
    {
      "bufferView": 0,
      "byteOffset": 1440,
      "componentType": 5125,
      "count": 1056,
      "type": "SCALAR"
    },
    {
      "bufferView": 2,
      "byteOffset": 10704,
      "componentType": 5126,
      "count": 32,
      "max": [
        1.0,
        1.0,
        1.0
      ],
      "min": [
        -1.0,
        -1.0,
        1.0
      ],
      "type": "VEC3"
    },
    {
      "bufferView": 2,
      "byteOffset": 11088,
      "componentType": 5126,
      "count": 32,
      "max": [
        1.9095208969588384e-08,
        0.0,
        1.0
      ],
      "min": [
        1.9095208969588384e-08,
        0.0,
        1.0
      ],
      "type": "VEC3"
    },
    {
      "bufferView": 1,
      "byteOffset": 3568,
      "componentType": 5126,
      "count": 32,
      "max": [
        0.7523571848869324,
        0.712298572063446
      ],
      "min": [
        0.23592406511306763,
        0.32985827326774597
      ],
      "type": "VEC2"
    },
    {
      "bufferView": 0,
      "byteOffset": 5664,
      "componentType": 5125,
      "count": 90,
      "type": "SCALAR"
    },
    {
      "bufferView": 2,
      "byteOffset": 11472,
      "componentType": 5126,
      "count": 32,
      "max": [
        1.0,
        1.0,
        1.0
      ],
      "min": [
        -1.0,
        -1.0,
        1.0
      ],
      "type": "VEC3"
    },
    {
      "bufferView": 2,
      "byteOffset": 11856,
      "componentType": 5126,
      "count": 32,
      "max": [
        1.9095208969588384e-08,
        0.0,
        1.0
      ],
      "min": [
        1.9095208969588384e-08,
        0.0,
        1.0
      ],
      "type": "VEC3"
    },
    {
      "bufferView": 1,
      "byteOffset": 3824,
      "componentType": 5126,
      "count": 32,
      "max": [
        0.7280452847480774,
        0.614736795425415
      ],
      "min": [
        0.1951318234205246,
        0.21957693994045258
      ],
      "type": "VEC2"
    },
    {
      "bufferView": 0,
      "byteOffset": 6024,
      "componentType": 5125,
      "count": 90,
      "type": "SCALAR"
    },
    {
      "bufferView": 2,
      "byteOffset": 12240,
      "componentType": 5126,
      "count": 151,
      "max": [
        0.14986278116703033,
        0.09949775785207748,
        0.0
      ],
      "min": [
        -0.1498701125383377,
        -0.10340780019760132,
        0.0
      ],
      "type": "VEC3"
    },
    {
      "bufferView": 2,
      "byteOffset": 14052,
      "componentType": 5126,
      "count": 151,
      "max": [
        0.0,
        0.0,
        1.0
      ],
      "min": [
        0.0,
        0.0,
        1.0
      ],
      "type": "VEC3"
    },
    {
      "bufferView": 1,
      "byteOffset": 4080,
      "componentType": 5126,
      "count": 151,
      "max": [
        0.6937810182571411,
        0.6761035323143005
      ],
      "min": [
        0.2938575744628906,
        0.4723658561706543
      ],
      "type": "VEC2"
    },
    {
      "bufferView": 0,
      "byteOffset": 6384,
      "componentType": 5125,
      "count": 390,
      "type": "SCALAR"
    },
    {
      "bufferView": 2,
      "byteOffset": 15864,
      "componentType": 5126,
      "count": 380,
      "max": [
        0.08791078627109528,
        0.13451653718948364,
        0.0
      ],
      "min": [
        -0.1611815094947815,
        -0.17232388257980347,
        0.0
      ],
      "type": "VEC3"
    },
    {
      "bufferView": 2,
      "byteOffset": 20424,
      "componentType": 5126,
      "count": 380,
      "max": [
        0.0,
        0.0,
        1.0
      ],
      "min": [
        0.0,
        0.0,
        1.0
      ],
      "type": "VEC3"
    },
    {
      "bufferView": 1,
      "byteOffset": 5288,
      "componentType": 5126,
      "count": 380,
      "max": [
        0.6167564988136292,
        0.6345165967941284
      ],
      "min": [
        0.2859308123588562,
        0.32767611742019653
      ],
      "type": "VEC2"
    },
    {
      "bufferView": 0,
      "byteOffset": 7944,
      "componentType": 5125,
      "count": 1134,
      "type": "SCALAR"
    },
    {
      "bufferView": 2,
      "byteOffset": 24984,
      "componentType": 5126,
      "count": 321,
      "max": [
        0.16179151833057404,
        0.14260068535804749,
        0.0
      ],
      "min": [
        -0.12964648008346558,
        -0.1476891040802002,
        0.0
      ],
      "type": "VEC3"
    },
    {
      "bufferView": 2,
      "byteOffset": 28836,
      "componentType": 5126,
      "count": 321,
      "max": [
        0.0,
        0.0,
        1.0
      ],
      "min": [
        0.0,
        0.0,
        -1.0
      ],
      "type": "VEC3"
    },
    {
      "bufferView": 1,
      "byteOffset": 8328,
      "componentType": 5126,
      "count": 321,
      "max": [
        0.71525639295578,
        0.64336758852005
      ],
      "min": [
        0.3273644745349884,
        0.3515300750732422
      ],
      "type": "VEC2"
    },
    {
      "bufferView": 0,
      "byteOffset": 12480,
      "componentType": 5125,
      "count": 1056,
      "type": "SCALAR"
    },
    {
      "bufferView": 2,
      "byteOffset": 32688,
      "componentType": 5126,
      "count": 721,
      "max": [
        0.12755687534809113,
        0.27476054430007935,
        0.0
      ],
      "min": [
        -0.21261736750602722,
        -0.24415744841098785,
        0.0
      ],
      "type": "VEC3"
    },
    {
      "bufferView": 2,
      "byteOffset": 41340,
      "componentType": 5126,
      "count": 721,
      "max": [
        0.0,
        0.0,
        1.0
      ],
      "min": [
        0.0,
        0.0,
        -1.0
      ],
      "type": "VEC3"
    },
    {
      "bufferView": 1,
      "byteOffset": 10896,
      "componentType": 5126,
      "count": 721,
      "max": [
        0.5963972210884094,
        0.7752431035041809
      ],
      "min": [
        0.33941563963890076,
        0.25439661741256714
      ],
      "type": "VEC2"
    },
    {
      "bufferView": 0,
      "byteOffset": 16704,
      "componentType": 5125,
      "count": 2352,
      "type": "SCALAR"
    },
    {
      "bufferView": 2,
      "byteOffset": 49992,
      "componentType": 5126,
      "count": 161,
      "max": [
        0.2072368860244751,
        0.2716515362262726,
        0.0
      ],
      "min": [
        -0.29607176780700684,
        -0.16948390007019043,
        0.0
      ],
      "type": "VEC3"
    },
    {
      "bufferView": 2,
      "byteOffset": 51924,
      "componentType": 5126,
      "count": 161,
      "max": [
        0.0,
        0.0,
        1.0
      ],
      "min": [
        0.0,
        0.0,
        1.0
      ],
      "type": "VEC3"
    },
    {
      "bufferView": 1,
      "byteOffset": 16664,
      "componentType": 5126,
      "count": 161,
      "max": [
        0.7752364873886108,
        0.7716515064239502
      ],
      "min": [
        0.10677969455718994,
        0.33051609992980957
      ],
      "type": "VEC2"
    },
    {
      "bufferView": 0,
      "byteOffset": 26112,
      "componentType": 5125,
      "count": 477,
      "type": "SCALAR"
    },
    {
      "bufferView": 2,
      "byteOffset": 53856,
      "componentType": 5126,
      "count": 465,
      "max": [
        0.07118161022663116,
        0.1228390485048294,
        0.0
      ],
      "min": [
        -0.1853703409433365,
        -0.18327823281288147,
        0.0
      ],
      "type": "VEC3"
    },
    {
      "bufferView": 2,
      "byteOffset": 59436,
      "componentType": 5126,
      "count": 465,
      "max": [
        0.0,
        0.0,
        1.0
      ],
      "min": [
        0.0,
        0.0,
        1.0
      ],
      "type": "VEC3"
    },
    {
      "bufferView": 1,
      "byteOffset": 17952,
      "componentType": 5126,
      "count": 465,
      "max": [
        0.5955036282539368,
        0.6231806874275208
      ],
      "min": [
        0.25299128890037537,
        0.3161033093929291
      ],
      "type": "VEC2"
    },
    {
      "bufferView": 0,
      "byteOffset": 28020,
      "componentType": 5125,
      "count": 1536,
      "type": "SCALAR"
    },
    {
      "bufferView": 2,
      "byteOffset": 65016,
      "componentType": 5126,
      "count": 106,
      "max": [
        0.09698635339736938,
        0.15327446162700653,
        0.0
      ],
      "min": [
        -0.1131209135055542,
        -0.2477395236492157,
        0.0
      ],
      "type": "VEC3"
    },
    {
      "bufferView": 2,
      "byteOffset": 66288,
      "componentType": 5126,
      "count": 106,
      "max": [
        0.0,
        0.0,
        1.0
      ],
      "min": [
        0.0,
        0.0,
        1.0
      ],
      "type": "VEC3"
    },
    {
      "bufferView": 1,
      "byteOffset": 21672,
      "componentType": 5126,
      "count": 106,
      "max": [
        0.6288100481033325,
        0.653274416923523
      ],
      "min": [
        0.34976130723953247,
        0.2522604763507843
      ],
      "type": "VEC2"
    },
    {
      "bufferView": 0,
      "byteOffset": 34164,
      "componentType": 5125,
      "count": 312,
      "type": "SCALAR"
    },
    {
      "bufferView": 2,
      "byteOffset": 67560,
      "componentType": 5126,
      "count": 7,
      "max": [
        0.10919232666492462,
        0.2174709439277649,
        0.0
      ],
      "min": [
        -0.1187613308429718,
        -0.1437232792377472,
        0.0
      ],
      "type": "VEC3"
    },
    {
      "bufferView": 2,
      "byteOffset": 67644,
      "componentType": 5126,
      "count": 7,
      "max": [
        0.0,
        0.0,
        1.0
      ],
      "min": [
        0.0,
        0.0,
        1.0
      ],
      "type": "VEC3"
    },
    {
      "bufferView": 1,
      "byteOffset": 22520,
      "componentType": 5126,
      "count": 7,
      "max": [
        0.6450210809707642,
        0.7174708843231201
      ],
      "min": [
        0.3422701060771942,
        0.3562767207622528
      ],
      "type": "VEC2"
    },
    {
      "bufferView": 0,
      "byteOffset": 35412,
      "componentType": 5125,
      "count": 15,
      "type": "SCALAR"
    },
    {
      "bufferView": 2,
      "byteOffset": 67728,
      "componentType": 5126,
      "count": 18,
      "max": [
        0.16447442770004272,
        0.08091676235198975,
        0.0
      ],
      "min": [
        -0.21542340517044067,
        -0.06939497590065002,
        0.0
      ],
      "type": "VEC3"
    },
    {
      "bufferView": 2,
      "byteOffset": 67944,
      "componentType": 5126,
      "count": 18,
      "max": [
        0.0,
        0.0,
        1.0
      ],
      "min": [
        0.0,
        0.0,
        1.0
      ],
      "type": "VEC3"
    },
    {
      "bufferView": 1,
      "byteOffset": 22576,
      "componentType": 5126,
      "count": 18,
      "max": [
        0.7184425592422485,
        0.5809167623519897
      ],
      "min": [
        0.21389079093933105,
        0.4306049942970276
      ],
      "type": "VEC2"
    },
    {
      "bufferView": 0,
      "byteOffset": 35472,
      "componentType": 5125,
      "count": 48,
      "type": "SCALAR"
    },
    {
      "bufferView": 2,
      "byteOffset": 68160,
      "componentType": 5126,
      "count": 43,
      "max": [
        0.10308150947093964,
        0.1391889452934265,
        0.0
      ],
      "min": [
        -0.10518904030323029,
        -0.14415565133094788,
        0.0
      ],
      "type": "VEC3"
    },
    {
      "bufferView": 2,
      "byteOffset": 68676,
      "componentType": 5126,
      "count": 43,
      "max": [
        0.0,
        0.0,
        1.0
      ],
      "min": [
        0.0,
        0.0,
        1.0
      ],
      "type": "VEC3"
    },
    {
      "bufferView": 1,
      "byteOffset": 22720,
      "componentType": 5126,
      "count": 43,
      "max": [
        0.3547121584415436,
        0.7040354013442993
      ],
      "min": [
        0.07810282707214355,
        0.4206908345222473
      ],
      "type": "VEC2"
    },
    {
      "bufferView": 0,
      "byteOffset": 35664,
      "componentType": 5125,
      "count": 123,
      "type": "SCALAR"
    },
    {
      "bufferView": 2,
      "byteOffset": 69192,
      "componentType": 5126,
      "count": 313,
      "max": [
        0.15825362503528595,
        0.262350469827652,
        0.0
      ],
      "min": [
        -0.20723602175712585,
        -0.3292929232120514,
        0.0
      ],
      "type": "VEC3"
    },
    {
      "bufferView": 2,
      "byteOffset": 72948,
      "componentType": 5126,
      "count": 313,
      "max": [
        0.0,
        0.0,
        1.0
      ],
      "min": [
        0.0,
        0.0,
        1.0
      ],
      "type": "VEC3"
    },
    {
      "bufferView": 1,
      "byteOffset": 23064,
      "componentType": 5126,
      "count": 313,
      "max": [
        0.7112953066825867,
        0.7639024257659912
      ],
      "min": [
        0.22327861189842224,
        0.1696769744157791
      ],
      "type": "VEC2"
    },
    {
      "bufferView": 0,
      "byteOffset": 36156,
      "componentType": 5125,
      "count": 1056,
      "type": "SCALAR"
    },
    {
      "bufferView": 2,
      "byteOffset": 76704,
      "componentType": 5126,
      "count": 378,
      "max": [
        0.1380680501461029,
        0.14616169035434723,
        0.0
      ],
      "min": [
        -0.18606652319431305,
        -0.08364270627498627,
        0.0
      ],
      "type": "VEC3"
    },
    {
      "bufferView": 2,
      "byteOffset": 81240,
      "componentType": 5126,
      "count": 378,
      "max": [
        0.0,
        0.0,
        1.0
      ],
      "min": [
        0.0,
        0.0,
        1.0
      ],
      "type": "VEC3"
    },
    {
      "bufferView": 1,
      "byteOffset": 25568,
      "componentType": 5126,
      "count": 378,
      "max": [
        0.683745801448822,
        0.646586537361145
      ],
      "min": [
        0.2527284324169159,
        0.41628801822662354
      ],
      "type": "VEC2"
    },
    {
      "bufferView": 0,
      "byteOffset": 40380,
      "componentType": 5125,
      "count": 1272,
      "type": "SCALAR"
    },
    {
      "bufferView": 2,
      "byteOffset": 85776,
      "componentType": 5126,
      "count": 44,
      "max": [
        0.2074863165616989,
        0.15575948357582092,
        0.0
      ],
      "min": [
        -0.20549799501895905,
        -0.19692686200141907,
        0.0
      ],
      "type": "VEC3"
    },
    {
      "bufferView": 2,
      "byteOffset": 86304,
      "componentType": 5126,
      "count": 44,
      "max": [
        0.0,
        0.0,
        1.0
      ],
      "min": [
        0.0,
        0.0,
        1.0
      ],
      "type": "VEC3"
    },
    {
      "bufferView": 1,
      "byteOffset": 28592,
      "componentType": 5126,
      "count": 44,
      "max": [
        0.7755677700042725,
        0.6557594537734985
      ],
      "min": [
        0.22707298398017883,
        0.30307313799858093
      ],
      "type": "VEC2"
    },
    {
      "bufferView": 0,
      "byteOffset": 45468,
      "componentType": 5125,
      "count": 126,
      "type": "SCALAR"
    },
    {
      "bufferView": 2,
      "byteOffset": 86832,
      "componentType": 5126,
      "count": 545,
      "max": [
        0.19317032396793365,
        0.29403772950172424,
        0.0
      ],
      "min": [
        -0.2174343317747116,
        -0.36859583854675293,
        0.0
      ],
      "type": "VEC3"
    },
    {
      "bufferView": 2,
      "byteOffset": 93372,
      "componentType": 5126,
      "count": 545,
      "max": [
        0.0,
        0.0,
        1.0
      ],
      "min": [
        0.0,
        0.0,
        -1.0
      ],
      "type": "VEC3"
    },
    {
      "bufferView": 1,
      "byteOffset": 28944,
      "componentType": 5126,
      "count": 545,
      "max": [
        0.7573350667953491,
        0.7943271398544312
      ],
      "min": [
        0.21046382188796997,
        0.13127560913562775
      ],
      "type": "VEC2"
    },
    {
      "bufferView": 0,
      "byteOffset": 45972,
      "componentType": 5125,
      "count": 1824,
      "type": "SCALAR"
    },
    {
      "bufferView": 2,
      "byteOffset": 99912,
      "componentType": 5126,
      "count": 155,
      "max": [
        0.2559179663658142,
        0.11464020609855652,
        0.0
      ],
      "min": [
        -0.2636610269546509,
        -0.24268606305122375,
        0.0
      ],
      "type": "VEC3"
    },
    {
      "bufferView": 2,
      "byteOffset": 101772,
      "componentType": 5126,
      "count": 155,
      "max": [
        0.0,
        0.0,
        1.0
      ],
      "min": [
        0.0,
        0.0,
        1.0
      ],
      "type": "VEC3"
    },
    {
      "bufferView": 1,
      "byteOffset": 33304,
      "componentType": 5126,
      "count": 155,
      "max": [
        0.8398910164833069,
        0.6146402359008789
      ],
      "min": [
        0.14982520043849945,
        0.25731390714645386
      ],
      "type": "VEC2"
    },
    {
      "bufferView": 0,
      "byteOffset": 53268,
      "componentType": 5125,
      "count": 459,
      "type": "SCALAR"
    },
    {
      "bufferView": 2,
      "byteOffset": 103632,
      "componentType": 5126,
      "count": 133,
      "max": [
        0.3764705955982208,
        0.30705302953720093,
        0.0
      ],
      "min": [
        -0.20991173386573792,
        -0.4050634503364563,
        0.0
      ],
      "type": "VEC3"
    },
    {
      "bufferView": 2,
      "byteOffset": 105228,
      "componentType": 5126,
      "count": 133,
      "max": [
        0.0,
        0.0,
        1.0
      ],
      "min": [
        0.0,
        0.0,
        1.0
      ],
      "type": "VEC3"
    },
    {
      "bufferView": 1,
      "byteOffset": 34544,
      "componentType": 5126,
      "count": 133,
      "max": [
        1.0,
        0.8070530891418457
      ],
      "min": [
        0.2212110161781311,
        0.0949365645647049
      ],
      "type": "VEC2"
    },
    {
      "bufferView": 0,
      "byteOffset": 55104,
      "componentType": 5125,
      "count": 414,
      "type": "SCALAR"
    },
    {
      "bufferView": 2,
      "byteOffset": 106824,
      "componentType": 5126,
      "count": 31,
      "max": [
        0.1016254872083664,
        0.17385399341583252,
        0.0
      ],
      "min": [
        -0.12875868380069733,
        -0.2816033959388733,
        0.0
      ],
      "type": "VEC3"
    },
    {
      "bufferView": 2,
      "byteOffset": 107196,
      "componentType": 5126,
      "count": 31,
      "max": [
        0.0,
        0.0,
        1.0
      ],
      "min": [
        0.0,
        0.0,
        1.0
      ],
      "type": "VEC3"
    },
    {
      "bufferView": 1,
      "byteOffset": 35608,
      "componentType": 5126,
      "count": 31,
      "max": [
        0.6349713802337646,
        0.6738539934158325
      ],
      "min": [
        0.3289923667907715,
        0.2183966040611267
      ],
      "type": "VEC2"
    },
    {
      "bufferView": 0,
      "byteOffset": 56760,
      "componentType": 5125,
      "count": 87,
      "type": "SCALAR"
    },
    {
      "bufferView": 2,
      "byteOffset": 107568,
      "componentType": 5126,
      "count": 4,
      "max": [
        0.3764705955982208,
        0.5,
        0.0
      ],
      "min": [
        -0.3764705955982208,
        -0.5,
        0.0
      ],
      "type": "VEC3"
    },
    {
      "bufferView": 2,
      "byteOffset": 107616,
      "componentType": 5126,
      "count": 4,
      "max": [
        0.0,
        0.0,
        1.0
      ],
      "min": [
        0.0,
        0.0,
        1.0
      ],
      "type": "VEC3"
    },
    {
      "bufferView": 1,
      "byteOffset": 35856,
      "componentType": 5126,
      "count": 4,
      "max": [
        0.758169412612915,
        0.8054656386375427
      ],
      "min": [
        0.2790353298187256,
        0.12294575572013855
      ],
      "type": "VEC2"
    },
    {
      "bufferView": 0,
      "byteOffset": 57108,
      "componentType": 5125,
      "count": 6,
      "type": "SCALAR"
    },
    {
      "bufferView": 2,
      "byteOffset": 107664,
      "componentType": 5126,
      "count": 446,
      "max": [
        0.2652013599872589,
        0.1416383683681488,
        0.0
      ],
      "min": [
        -0.21639975905418396,
        -0.15817400813102722,
        0.0
      ],
      "type": "VEC3"
    },
    {
      "bufferView": 2,
      "byteOffset": 113016,
      "componentType": 5126,
      "count": 446,
      "max": [
        0.0,
        0.0,
        1.0
      ],
      "min": [
        0.0,
        0.0,
        1.0
      ],
      "type": "VEC3"
    },
    {
      "bufferView": 1,
      "byteOffset": 35888,
      "componentType": 5126,
      "count": 446,
      "max": [
        0.852570652961731,
        0.6416735053062439
      ],
      "min": [
        0.21193194389343262,
        0.34122785925865173
      ],
      "type": "VEC2"
    },
    {
      "bufferView": 0,
      "byteOffset": 57132,
      "componentType": 5125,
      "count": 1512,
      "type": "SCALAR"
    },
    {
      "bufferView": 2,
      "byteOffset": 118368,
      "componentType": 5126,
      "count": 4,
      "max": [
        0.3764705955982208,
        0.5,
        0.0
      ],
      "min": [
        -0.3764705955982208,
        -0.5,
        0.0
      ],
      "type": "VEC3"
    },
    {
      "bufferView": 2,
      "byteOffset": 118416,
      "componentType": 5126,
      "count": 4,
      "max": [
        0.0,
        0.0,
        1.0
      ],
      "min": [
        0.0,
        0.0,
        1.0
      ],
      "type": "VEC3"
    },
    {
      "bufferView": 1,
      "byteOffset": 39456,
      "componentType": 5126,
      "count": 4,
      "max": [
        0.7490001320838928,
        0.735663652420044
      ],
      "min": [
        0.24935932457447052,
        0.2087516188621521
      ],
      "type": "VEC2"
    },
    {
      "bufferView": 0,
      "byteOffset": 63180,
      "componentType": 5125,
      "count": 6,
      "type": "SCALAR"
    },
    {
      "bufferView": 2,
      "byteOffset": 118464,
      "componentType": 5126,
      "count": 17,
      "max": [
        0.20307475328445435,
        0.09160849452018738,
        0.0
      ],
      "min": [
        -0.20890134572982788,
        -0.08803442120552063,
        0.0
      ],
      "type": "VEC3"
    },
    {
      "bufferView": 2,
      "byteOffset": 118668,
      "componentType": 5126,
      "count": 17,
      "max": [
        0.0,
        0.0,
        1.0
      ],
      "min": [
        0.0,
        0.0,
        1.0
      ],
      "type": "VEC3"
    },
    {
      "bufferView": 1,
      "byteOffset": 39488,
      "componentType": 5126,
      "count": 17,
      "max": [
        0.7423394918441772,
        0.6551737189292908
      ],
      "min": [
        0.19518369436264038,
        0.475530743598938
      ],
      "type": "VEC2"
    },
    {
      "bufferView": 0,
      "byteOffset": 63204,
      "componentType": 5125,
      "count": 45,
      "type": "SCALAR"
    },
    {
      "bufferView": 2,
      "byteOffset": 118872,
      "componentType": 5126,
      "count": 5,
      "max": [
        0.14962473511695862,
        0.08922016620635986,
        0.0
      ],
      "min": [
        -0.15272682905197144,
        -0.0900689959526062,
        0.0
      ],
      "type": "VEC3"
    },
    {
      "bufferView": 2,
      "byteOffset": 118932,
      "componentType": 5126,
      "count": 5,
      "max": [
        0.0,
        0.0,
        1.0
      ],
      "min": [
        0.0,
        0.0,
        1.0
      ],
      "type": "VEC3"
    },
    {
      "bufferView": 1,
      "byteOffset": 39624,
      "componentType": 5126,
      "count": 5,
      "max": [
        0.6700301170349121,
        0.8511793613433838
      ],
      "min": [
        0.2684694230556488,
        0.6718903183937073
      ],
      "type": "VEC2"
    },
    {
      "bufferView": 0,
      "byteOffset": 63384,
      "componentType": 5125,
      "count": 9,
      "type": "SCALAR"
    },
    {
      "bufferView": 2,
      "byteOffset": 118992,
      "componentType": 5126,
      "count": 4,
      "max": [
        0.3764705955982208,
        0.5,
        0.0
      ],
      "min": [
        -0.3764705955982208,
        -0.5,
        0.0
      ],
      "type": "VEC3"
    },
    {
      "bufferView": 2,
      "byteOffset": 119040,
      "componentType": 5126,
      "count": 4,
      "max": [
        0.0,
        0.0,
        1.0
      ],
      "min": [
        0.0,
        0.0,
        1.0
      ],
      "type": "VEC3"
    },
    {
      "bufferView": 1,
      "byteOffset": 39664,
      "componentType": 5126,
      "count": 4,
      "max": [
        0.699784517288208,
        0.6368463635444641
      ],
      "min": [
        0.36419588327407837,
        0.37674108147621155
      ],
      "type": "VEC2"
    },
    {
      "bufferView": 0,
      "byteOffset": 63420,
      "componentType": 5125,
      "count": 6,
      "type": "SCALAR"
    },
    {
      "bufferView": 2,
      "byteOffset": 119088,
      "componentType": 5126,
      "count": 306,
      "max": [
        0.07422143220901489,
        0.1379583775997162,
        0.0
      ],
      "min": [
        -0.1370970606803894,
        -0.2538098692893982,
        0.0
      ],
      "type": "VEC3"
    },
    {
      "bufferView": 2,
      "byteOffset": 122760,
      "componentType": 5126,
      "count": 306,
      "max": [
        0.0,
        0.0,
        1.0
      ],
      "min": [
        0.0,
        0.0,
        1.0
      ],
      "type": "VEC3"
    },
    {
      "bufferView": 1,
      "byteOffset": 39696,
      "componentType": 5126,
      "count": 306,
      "max": [
        0.5996904373168945,
        0.6380084156990051
      ],
      "min": [
        0.31763923168182373,
        0.24525555968284607
      ],
      "type": "VEC2"
    },
    {
      "bufferView": 0,
      "byteOffset": 63444,
      "componentType": 5125,
      "count": 1056,
      "type": "SCALAR"
    },
    {
      "bufferView": 2,
      "byteOffset": 126432,
      "componentType": 5126,
      "count": 1328,
      "max": [
        0.16895857453346252,
        0.4652293920516968,
        0.0
      ],
      "min": [
        -0.21904313564300537,
        -0.22009415924549103,
        0.0
      ],
      "type": "VEC3"
    },
    {
      "bufferView": 2,
      "byteOffset": 142368,
      "componentType": 5126,
      "count": 1328,
      "max": [
        0.0,
        0.0,
        1.0
      ],
      "min": [
        0.0,
        0.0,
        -1.0
      ],
      "type": "VEC3"
    },
    {
      "bufferView": 1,
      "byteOffset": 42144,
      "componentType": 5126,
      "count": 1328,
      "max": [
        0.7244537472724915,
        0.9663815498352051
      ],
      "min": [
        0.2075534164905548,
        0.2792711555957794
      ],
      "type": "VEC2"
    },
    {
      "bufferView": 0,
      "byteOffset": 67668,
      "componentType": 5125,
      "count": 5760,
      "type": "SCALAR"
    },
    {
      "bufferView": 2,
      "byteOffset": 158304,
      "componentType": 5126,
      "count": 11,
      "max": [
        0.13402032852172852,
        0.0680881142616272,
        0.0
      ],
      "min": [
        -0.11645935475826263,
        -0.104332834482193,
        0.0
      ],
      "type": "VEC3"
    },
    {
      "bufferView": 2,
      "byteOffset": 158436,
      "componentType": 5126,
      "count": 11,
      "max": [
        0.0,
        0.0,
        1.0
      ],
      "min": [
        0.0,
        0.0,
        1.0
      ],
      "type": "VEC3"
    },
    {
      "bufferView": 1,
      "byteOffset": 52768,
      "componentType": 5126,
      "count": 11,
      "max": [
        0.46372613310813904,
        0.2526656687259674
      ],
      "min": [
        0.1310577690601349,
        0.08024471998214722
      ],
      "type": "VEC2"
    },
    {
      "bufferView": 0,
      "byteOffset": 90708,
      "componentType": 5125,
      "count": 27,
      "type": "SCALAR"
    },
    {
      "bufferView": 2,
      "byteOffset": 158568,
      "componentType": 5126,
      "count": 17,
      "max": [
        0.3150101900100708,
        0.3134039640426636,
        0.0
      ],
      "min": [
        -0.2975534498691559,
        -0.10574163496494293,
        0.0
      ],
      "type": "VEC3"
    },
    {
      "bufferView": 2,
      "byteOffset": 158772,
      "componentType": 5126,
      "count": 17,
      "max": [
        0.0,
        0.0,
        1.0
      ],
      "min": [
        0.0,
        0.0,
        1.0
      ],
      "type": "VEC3"
    },
    {
      "bufferView": 1,
      "byteOffset": 52856,
      "componentType": 5126,
      "count": 17,
      "max": [
        0.9183728694915771,
        0.8134039044380188
      ],
      "min": [
        0.10481183230876923,
        0.39425837993621826
      ],
      "type": "VEC2"
    },
    {
      "bufferView": 0,
      "byteOffset": 90816,
      "componentType": 5125,
      "count": 51,
      "type": "SCALAR"
    },
    {
      "bufferView": 2,
      "byteOffset": 158976,
      "componentType": 5126,
      "count": 65,
      "max": [
        0.13703233003616333,
        0.25483202934265137,
        0.0
      ],
      "min": [
        -0.11926460266113281,
        -0.2864270508289337,
        0.0
      ],
      "type": "VEC3"
    },
    {
      "bufferView": 2,
      "byteOffset": 159756,
      "componentType": 5126,
      "count": 65,
      "max": [
        0.0,
        0.0,
        1.0
      ],
      "min": [
        0.0,
        0.0,
        1.0
      ],
      "type": "VEC3"
    },
    {
      "bufferView": 1,
      "byteOffset": 52992,
      "componentType": 5126,
      "count": 65,
      "max": [
        0.4568721055984497,
        0.7291318774223328
      ],
      "min": [
        0.11647775769233704,
        0.1878727376461029
      ],
      "type": "VEC2"
    },
    {
      "bufferView": 0,
      "byteOffset": 91020,
      "componentType": 5125,
      "count": 189,
      "type": "SCALAR"
    },
    {
      "bufferView": 2,
      "byteOffset": 160536,
      "componentType": 5126,
      "count": 32,
      "max": [
        0.2289319932460785,
        0.23889803886413574,
        0.0
      ],
      "min": [
        -0.02539798617362976,
        0.05517624318599701,
        0.0
      ],
      "type": "VEC3"
    },
    {
      "bufferView": 2,
      "byteOffset": 160920,
      "componentType": 5126,
      "count": 32,
      "max": [
        0.0,
        0.0,
        1.0
      ],
      "min": [
        0.0,
        0.0,
        1.0
      ],
      "type": "VEC3"
    },
    {
      "bufferView": 1,
      "byteOffset": 53512,
      "componentType": 5126,
      "count": 32,
      "max": [
        0.8040503859519958,
        0.738897979259491
      ],
      "min": [
        0.4662683308124542,
        0.5551762580871582
      ],
      "type": "VEC2"
    },
    {
      "bufferView": 0,
      "byteOffset": 91776,
      "componentType": 5125,
      "count": 90,
      "type": "SCALAR"
    },
    {
      "bufferView": 2,
      "byteOffset": 161304,
      "componentType": 5126,
      "count": 37,
      "max": [
        0.14063408970832825,
        0.20139068365097046,
        0.0
      ],
      "min": [
        -0.1764252632856369,
        -0.22412043809890747,
        0.0
      ],
      "type": "VEC3"
    },
    {
      "bufferView": 2,
      "byteOffset": 161748,
      "componentType": 5126,
      "count": 37,
      "max": [
        0.0,
        0.0,
        1.0
      ],
      "min": [
        0.0,
        0.0,
        1.0
      ],
      "type": "VEC3"
    },
    {
      "bufferView": 1,
      "byteOffset": 53768,
      "componentType": 5126,
      "count": 37,
      "max": [
        0.6867796182632446,
        0.7013906240463257
      ],
      "min": [
        0.26568520069122314,
        0.27587956190109253
      ],
      "type": "VEC2"
    },
    {
      "bufferView": 0,
      "byteOffset": 92136,
      "componentType": 5125,
      "count": 105,
      "type": "SCALAR"
    },
    {
      "bufferView": 3,
      "componentType": 5126,
      "count": 100,
      "max": [
        3.299999952316284
      ],
      "min": [
        0.0
      ],
      "type": "SCALAR"
    },
    {
      "bufferView": 4,
      "componentType": 5126,
      "count": 100,
      "max": [
        2768.54736328125,
        13.006758689880371,
        882.802490234375
      ],
      "min": [
        205.54733276367188,
        13.006758689880371,
        882.802490234375
      ],
      "type": "VEC3"
    }
  ],
  "animations": [
    {
      "channels": [
        {
          "sampler": 0,
          "target": {
            "node": 48,
            "path": "translation"
          }
        }
      ],
      "name": "PXL_20230910_125838220|CameraAction",
      "samplers": [
        {
          "input": 144,
          "interpolation": "LINEAR",
          "output": 145
        }
      ]
    }
  ],
  "asset": {
    "extras": {
      "author": "Ellipsoid (https://sketchfab.com/Ellipsoid)",
      "license": "CC-BY-4.0 (http://creativecommons.org/licenses/by/4.0/)",
      "source": "https://sketchfab.com/3d-models/sticker-pack-1-41-stickers-1ea3bb388c504ea1a6396759f5538006",
      "title": "STICKER PACK 1, 41 Stickers"
    },
    "generator": "Sketchfab-16.59.0",
    "version": "2.0"
  },
  "bufferViews": [
    {
      "buffer": 0,
      "byteLength": 92556,
      "name": "floatBufferViews",
      "target": 34963
    },
    {
      "buffer": 0,
      "byteLength": 54064,
      "byteOffset": 92556,
      "byteStride": 8,
      "name": "floatBufferViews",
      "target": 34962
    },
    {
      "buffer": 0,
      "byteLength": 162192,
      "byteOffset": 146620,
      "byteStride": 12,
      "name": "floatBufferViews",
      "target": 34962
    },
    {
      "buffer": 0,
      "byteLength": 400,
      "byteOffset": 308812,
      "name": "floatBufferViews"
    },
    {
      "buffer": 0,
      "byteLength": 1200,
      "byteOffset": 309212,
      "byteStride": 12,
      "name": "floatBufferViews"
    }
  ],
  "buffers": [
    {
      "byteLength": 310412,
      "uri": "scene.bin"
    }
  ],
  "extensionsRequired": [
    "KHR_materials_pbrSpecularGlossiness"
  ],
  "extensionsUsed": [
    "KHR_materials_pbrSpecularGlossiness"
  ],
  "images": [
    {
      "uri": "textures/Material.001_diffuse.jpeg"
    },
    {
      "uri": "textures/Material.002_diffuse.jpeg"
    },
    {
      "uri": "textures/Material.005_diffuse.jpeg"
    },
    {
      "uri": "textures/Material.007_diffuse.jpeg"
    },
    {
      "uri": "textures/Material.008_diffuse.jpeg"
    },
    {
      "uri": "textures/Material.009_diffuse.jpeg"
    },
    {
      "uri": "textures/PXL_20230910_134356569_diffuse.jpeg"
    },
    {
      "uri": "textures/PXL_20230910_134616875_diffuse.jpeg"
    },
    {
      "uri": "textures/PXL_20230910_125734876_diffuse.jpeg"
    },
    {
      "uri": "textures/PXL_20230910_125628925_diffuse.jpeg"
    },
    {
      "uri": "textures/PXL_20230910_125554091_diffuse.jpeg"
    },
    {
      "uri": "textures/PXL_20230910_125418743_diffuse.jpeg"
    },
    {
      "uri": "textures/PXL_20230910_125903073_diffuse.jpeg"
    },
    {
      "uri": "textures/PXL_20230910_130057485_diffuse.jpeg"
    },
    {
      "uri": "textures/PXL_20230910_130045015_diffuse.jpeg"
    },
    {
      "uri": "textures/PXL_20230910_130017469_diffuse.jpeg"
    },
    {
      "uri": "textures/PXL_20230910_130012497_diffuse.jpeg"
    },
    {
      "uri": "textures/PXL_20230910_125956746_diffuse.jpeg"
    },
    {
      "uri": "textures/PXL_20230910_125953194_diffuse.jpeg"
    },
    {
      "uri": "textures/PXL_20230910_125906932_diffuse.jpeg"
    },
    {
      "uri": "textures/PXL_20230910_125855716_diffuse.jpeg"
    },
    {
      "uri": "textures/PXL_20230910_125845031_diffuse.jpeg"
    },
    {
      "uri": "textures/PXL_20230910_125838220_diffuse.jpeg"
    },
    {
      "uri": "textures/PXL_20230910_125557847_diffuse.jpeg"
    },
    {
      "uri": "textures/PXL_20230910_125551189_diffuse.jpeg"
    },
    {
      "uri": "textures/PXL_20230910_125548721_diffuse.jpeg"
    },
    {
      "uri": "textures/PXL_20230910_125459980_diffuse.jpeg"
    },
    {
      "uri": "textures/PXL_20230910_125345708_diffuse.jpeg"
    },
    {
      "uri": "textures/PXL_20230910_124158100_diffuse.jpeg"
    },
    {
      "uri": "textures/PXL_20230910_130047306_diffuse.jpeg"
    },
    {
      "uri": "textures/PXL_20230910_125900712_diffuse.jpeg"
    },
    {
      "uri": "textures/PXL_20230910_125841676_diffuse.jpeg"
    },
    {
      "uri": "textures/PXL_20230910_125808794_diffuse.jpeg"
    }
  ],
  "materials": [
    {
      "doubleSided": true,
      "extensions": {
        "KHR_materials_pbrSpecularGlossiness": {
          "diffuseFactor": [
            1.0,
            1.0,
            1.0,
            1.0
          ],
          "diffuseTexture": {
            "index": 0
          },
          "glossinessFactor": 0.1788854381999832,
          "specularFactor": [
            0.0,
            0.0,
            0.0
          ]
        }
      },
      "name": "Material.001"
    },
    {
      "doubleSided": true,
      "extensions": {
        "KHR_materials_pbrSpecularGlossiness": {
          "diffuseFactor": [
            1.0,
            1.0,
            1.0,
            1.0
          ],
          "diffuseTexture": {
            "index": 1
          },
          "glossinessFactor": 0.1788854381999832,
          "specularFactor": [
            0.0,
            0.0,
            0.0
          ]
        }
      },
      "name": "Material.002"
    },
    {
      "doubleSided": true,
      "extensions": {
        "KHR_materials_pbrSpecularGlossiness": {
          "diffuseFactor": [
            1.0,
            1.0,
            1.0,
            1.0
          ],
          "diffuseTexture": {
            "index": 2
          },
          "glossinessFactor": 0.1788854381999832,
          "specularFactor": [
            0.0,
            0.0,
            0.0
          ]
        }
      },
      "name": "Material.005"
    },
    {
      "doubleSided": true,
      "extensions": {
        "KHR_materials_pbrSpecularGlossiness": {
          "diffuseFactor": [
            1.0,
            1.0,
            1.0,
            1.0
          ],
          "diffuseTexture": {
            "index": 3
          },
          "glossinessFactor": 0.21889977714440134,
          "specularFactor": [
            0.0,
            0.0,
            0.0
          ]
        }
      },
      "name": "Material.007"
    },
    {
      "doubleSided": true,
      "extensions": {
        "KHR_materials_pbrSpecularGlossiness": {
          "diffuseFactor": [
            1.0,
            1.0,
            1.0,
            1.0
          ],
          "diffuseTexture": {
            "index": 4
          },
          "glossinessFactor": 0.1788854381999832,
          "specularFactor": [
            0.0,
            0.0,
            0.0
          ]
        }
      },
      "name": "Material.008"
    },
    {
      "doubleSided": true,
      "extensions": {
        "KHR_materials_pbrSpecularGlossiness": {
          "diffuseFactor": [
            1.0,
            1.0,
            1.0,
            1.0
          ],
          "diffuseTexture": {
            "index": 5
          },
          "glossinessFactor": 0.1788854381999832,
          "specularFactor": [
            0.0,
            0.0,
            0.0
          ]
        }
      },
      "name": "Material.009"
    },
    {
      "doubleSided": true,
      "extensions": {
        "KHR_materials_pbrSpecularGlossiness": {
          "diffuseFactor": [
            1.0,
            1.0,
            1.0,
            1.0
          ],
          "diffuseTexture": {
            "index": 6
          },
          "glossinessFactor": 0.1788854381999832,
          "specularFactor": [
            0.0,
            0.0,
            0.0
          ]
        }
      },
      "name": "PXL_20230910_134356569"
    },
    {
      "doubleSided": true,
      "extensions": {
        "KHR_materials_pbrSpecularGlossiness": {
          "diffuseFactor": [
            1.0,
            1.0,
            1.0,
            1.0
          ],
          "diffuseTexture": {
            "index": 7
          },
          "glossinessFactor": 0.24360924557091096,
          "specularFactor": [
            0.0,
            0.0,
            0.0
          ]
        }
      },
      "name": "PXL_20230910_134616875"
    },
    {
      "doubleSided": true,
      "extensions": {
        "KHR_materials_pbrSpecularGlossiness": {
          "diffuseFactor": [
            1.0,
            1.0,
            1.0,
            1.0
          ],
          "diffuseTexture": {
            "index": 8
          },
          "glossinessFactor": 0.24181131712369922,
          "specularFactor": [
            0.0,
            0.0,
            0.0
          ]
        }
      },
      "name": "PXL_20230910_125734876"
    },
    {
      "doubleSided": true,
      "extensions": {
        "KHR_materials_pbrSpecularGlossiness": {
          "diffuseFactor": [
            1.0,
            1.0,
            1.0,
            1.0
          ],
          "diffuseTexture": {
            "index": 9
          },
          "glossinessFactor": 0.24360924557091096,
          "specularFactor": [
            0.0,
            0.0,
            0.0
          ]
        }
      },
      "name": "PXL_20230910_125628925"
    },
    {
      "doubleSided": true,
      "extensions": {
        "KHR_materials_pbrSpecularGlossiness": {
          "diffuseFactor": [
            1.0,
            1.0,
            1.0,
            1.0
          ],
          "diffuseTexture": {
            "index": 10
          },
          "glossinessFactor": 0.1788854381999832,
          "specularFactor": [
            0.0,
            0.0,
            0.0
          ]
        }
      },
      "name": "PXL_20230910_125554091"
    },
    {
      "doubleSided": true,
      "extensions": {
        "KHR_materials_pbrSpecularGlossiness": {
          "diffuseFactor": [
            1.0,
            1.0,
            1.0,
            1.0
          ],
          "diffuseTexture": {
            "index": 11
          },
          "glossinessFactor": 0.24181131712369922,
          "specularFactor": [
            0.0,
            0.0,
            0.0
          ]
        }
      },
      "name": "PXL_20230910_125418743"
    },
    {
      "doubleSided": true,
      "extensions": {
        "KHR_materials_pbrSpecularGlossiness": {
          "diffuseFactor": [
            1.0,
            1.0,
            1.0,
            1.0
          ],
          "diffuseTexture": {
            "index": 12
          },
          "glossinessFactor": 0.1788854381999832,
          "specularFactor": [
            0.0,
            0.0,
            0.0
          ]
        }
      },
      "name": "PXL_20230910_125903073"
    },
    {
      "doubleSided": true,
      "extensions": {
        "KHR_materials_pbrSpecularGlossiness": {
          "diffuseFactor": [
            1.0,
            1.0,
            1.0,
            1.0
          ],
          "diffuseTexture": {
            "index": 13
          },
          "glossinessFactor": 0.1788854381999832,
          "specularFactor": [
            0.0,
            0.0,
            0.0
          ]
        }
      },
      "name": "PXL_20230910_130057485"
    },
    {
      "doubleSided": true,
      "extensions": {
        "KHR_materials_pbrSpecularGlossiness": {
          "diffuseFactor": [
            1.0,
            1.0,
            1.0,
            1.0
          ],
          "diffuseTexture": {
            "index": 14
          },
          "glossinessFactor": 0.16868629527955087,
          "specularFactor": [
            0.0,
            0.0,
            0.0
          ]
        }
      },
      "name": "PXL_20230910_130045015"
    },
    {
      "doubleSided": true,
      "extensions": {
        "KHR_materials_pbrSpecularGlossiness": {
          "diffuseFactor": [
            1.0,
            1.0,
            1.0,
            1.0
          ],
          "diffuseTexture": {
            "index": 15
          },
          "glossinessFactor": 0.1788854381999832,
          "specularFactor": [
            0.0,
            0.0,
            0.0
          ]
        }
      },
      "name": "PXL_20230910_130017469"
    },
    {
      "doubleSided": true,
      "extensions": {
        "KHR_materials_pbrSpecularGlossiness": {
          "diffuseFactor": [
            1.0,
            1.0,
            1.0,
            1.0
          ],
          "diffuseTexture": {
            "index": 16
          },
          "glossinessFactor": 0.1788854381999832,
          "specularFactor": [
            0.0,
            0.0,
            0.0
          ]
        }
      },
      "name": "PXL_20230910_130012497"
    },
    {
      "doubleSided": true,
      "extensions": {
        "KHR_materials_pbrSpecularGlossiness": {
          "diffuseFactor": [
            1.0,
            1.0,
            1.0,
            1.0
          ],
          "diffuseTexture": {
            "index": 17
          },
          "glossinessFactor": 0.1788854381999832,
          "specularFactor": [
            0.0,
            0.0,
            0.0
          ]
        }
      },
      "name": "PXL_20230910_125956746"
    },
    {
      "doubleSided": true,
      "extensions": {
        "KHR_materials_pbrSpecularGlossiness": {
          "diffuseFactor": [
            1.0,
            1.0,
            1.0,
            1.0
          ],
          "diffuseTexture": {
            "index": 18
          },
          "glossinessFactor": 0.1788854381999832,
          "specularFactor": [
            0.0,
            0.0,
            0.0
          ]
        }
      },
      "name": "PXL_20230910_125953194"
    },
    {
      "doubleSided": true,
      "extensions": {
        "KHR_materials_pbrSpecularGlossiness": {
          "diffuseFactor": [
            1.0,
            1.0,
            1.0,
            1.0
          ],
          "diffuseTexture": {
            "index": 19
          },
          "glossinessFactor": 0.1788854381999832,
          "specularFactor": [
            0.0,
            0.0,
            0.0
          ]
        }
      },
      "name": "PXL_20230910_125906932"
    },
    {
      "doubleSided": true,
      "extensions": {
        "KHR_materials_pbrSpecularGlossiness": {
          "diffuseFactor": [
            1.0,
            1.0,
            1.0,
            1.0
          ],
          "diffuseTexture": {
            "index": 20
          },
          "glossinessFactor": 0.1788854381999832,
          "specularFactor": [
            0.0,
            0.0,
            0.0
          ]
        }
      },
      "name": "PXL_20230910_125855716"
    },
    {
      "doubleSided": true,
      "extensions": {
        "KHR_materials_pbrSpecularGlossiness": {
          "diffuseFactor": [
            1.0,
            1.0,
            1.0,
            1.0
          ],
          "diffuseTexture": {
            "index": 21
          },
          "glossinessFactor": 0.1788854381999832,
          "specularFactor": [
            0.0,
            0.0,
            0.0
          ]
        }
      },
      "name": "PXL_20230910_125845031"
    },
    {
      "doubleSided": true,
      "extensions": {
        "KHR_materials_pbrSpecularGlossiness": {
          "diffuseFactor": [
            1.0,
            1.0,
            1.0,
            1.0
          ],
          "diffuseTexture": {
            "index": 22
          },
          "glossinessFactor": 0.2445386597543361,
          "specularFactor": [
            0.0,
            0.0,
            0.0
          ]
        }
      },
      "name": "PXL_20230910_125838220"
    },
    {
      "doubleSided": true,
      "extensions": {
        "KHR_materials_pbrSpecularGlossiness": {
          "diffuseFactor": [
            1.0,
            1.0,
            1.0,
            1.0
          ],
          "diffuseTexture": {
            "index": 23
          },
          "glossinessFactor": 0.1788854381999832,
          "specularFactor": [
            0.0,
            0.0,
            0.0
          ]
        }
      },
      "name": "PXL_20230910_125557847"
    },
    {
      "doubleSided": true,
      "extensions": {
        "KHR_materials_pbrSpecularGlossiness": {
          "diffuseFactor": [
            1.0,
            1.0,
            1.0,
            1.0
          ],
          "diffuseTexture": {
            "index": 24
          },
          "glossinessFactor": 0.1788854381999832,
          "specularFactor": [
            0.0,
            0.0,
            0.0
          ]
        }
      },
      "name": "PXL_20230910_125551189"
    },
    {
      "doubleSided": true,
      "extensions": {
        "KHR_materials_pbrSpecularGlossiness": {
          "diffuseFactor": [
            1.0,
            1.0,
            1.0,
            1.0
          ],
          "diffuseTexture": {
            "index": 25
          },
          "glossinessFactor": 0.1788854381999832,
          "specularFactor": [
            0.0,
            0.0,
            0.0
          ]
        }
      },
      "name": "PXL_20230910_125548721"
    },
    {
      "doubleSided": true,
      "extensions": {
        "KHR_materials_pbrSpecularGlossiness": {
          "diffuseFactor": [
            1.0,
            1.0,
            1.0,
            1.0
          ],
          "diffuseTexture": {
            "index": 26
          },
          "glossinessFactor": 0.23817484087361535,
          "specularFactor": [
            0.0,
            0.0,
            0.0
          ]
        }
      },
      "name": "PXL_20230910_125459980"
    },
    {
      "doubleSided": true,
      "extensions": {
        "KHR_materials_pbrSpecularGlossiness": {
          "diffuseFactor": [
            1.0,
            1.0,
            1.0,
            1.0
          ],
          "diffuseTexture": {
            "index": 27
          },
          "glossinessFactor": 0.2363803405551309,
          "specularFactor": [
            0.0,
            0.0,
            0.0
          ]
        }
      },
      "name": "PXL_20230910_125345708"
    },
    {
      "doubleSided": true,
      "extensions": {
        "KHR_materials_pbrSpecularGlossiness": {
          "diffuseFactor": [
            1.0,
            1.0,
            1.0,
            1.0
          ],
          "diffuseTexture": {
            "index": 28
          },
          "glossinessFactor": 0.1788854381999832,
          "specularFactor": [
            0.0,
            0.0,
            0.0
          ]
        }
      },
      "name": "PXL_20230910_124158100"
    },
    {
      "doubleSided": true,
      "extensions": {
        "KHR_materials_pbrSpecularGlossiness": {
          "diffuseFactor": [
            1.0,
            1.0,
            1.0,
            1.0
          ],
          "diffuseTexture": {
            "index": 29
          },
          "glossinessFactor": 0.1788854381999832,
          "specularFactor": [
            0.0,
            0.0,
            0.0
          ]
        }
      },
      "name": "PXL_20230910_130047306"
    },
    {
      "doubleSided": true,
      "extensions": {
        "KHR_materials_pbrSpecularGlossiness": {
          "diffuseFactor": [
            1.0,
            1.0,
            1.0,
            1.0
          ],
          "diffuseTexture": {
            "index": 30
          },
          "glossinessFactor": 0.2363803405551309,
          "specularFactor": [
            0.0,
            0.0,
            0.0
          ]
        }
      },
      "name": "PXL_20230910_125900712"
    },
    {
      "doubleSided": true,
      "extensions": {
        "KHR_materials_pbrSpecularGlossiness": {
          "diffuseFactor": [
            1.0,
            1.0,
            1.0,
            1.0
          ],
          "diffuseTexture": {
            "index": 31
          },
          "glossinessFactor": 0.1788854381999832,
          "specularFactor": [
            0.0,
            0.0,
            0.0
          ]
        }
      },
      "name": "PXL_20230910_125841676"
    },
    {
      "doubleSided": true,
      "extensions": {
        "KHR_materials_pbrSpecularGlossiness": {
          "diffuseFactor": [
            1.0,
            1.0,
            1.0,
            1.0
          ],
          "diffuseTexture": {
            "index": 32
          },
          "glossinessFactor": 0.0,
          "specularFactor": [
            0.0,
            0.0,
            0.0
          ]
        }
      },
      "name": "PXL_20230910_125808794"
    }
  ],
  "meshes": [
    {
      "name": "Cylinder_Material.001_0",
      "primitives": [
        {
          "attributes": {
            "NORMAL": 1,
            "POSITION": 0,
            "TEXCOORD_0": 2
          },
          "indices": 3,
          "material": 0,
          "mode": 4
        }
      ]
    },
    {
      "name": "Cylinder.001_Material.002_0",
      "primitives": [
        {
          "attributes": {
            "NORMAL": 5,
            "POSITION": 4,
            "TEXCOORD_0": 6
          },
          "indices": 7,
          "material": 1,
          "mode": 4
        }
      ]
    },
    {
      "name": "Cylinder.004_Material.005_0",
      "primitives": [
        {
          "attributes": {
            "NORMAL": 9,
            "POSITION": 8,
            "TEXCOORD_0": 10
          },
          "indices": 11,
          "material": 2,
          "mode": 4
        }
      ]
    },
    {
      "name": "Plane_Material.007_0",
      "primitives": [
        {
          "attributes": {
            "NORMAL": 13,
            "POSITION": 12,
            "TEXCOORD_0": 14
          },
          "indices": 15,
          "material": 3,
          "mode": 4
        }
      ]
    },
    {
      "name": "Cylinder.002_Material.008_0",
      "primitives": [
        {
          "attributes": {
            "NORMAL": 17,
            "POSITION": 16,
            "TEXCOORD_0": 18
          },
          "indices": 19,
          "material": 4,
          "mode": 4
        }
      ]
    },
    {
      "name": "Cylinder.003_Material.009_0",
      "primitives": [
        {
          "attributes": {
            "NORMAL": 21,
            "POSITION": 20,
            "TEXCOORD_0": 22
          },
          "indices": 23,
          "material": 5,
          "mode": 4
        }
      ]
    },
    {
      "name": "PXL_20230910_134356569_PXL_20230910_134356569_0",
      "primitives": [
        {
          "attributes": {
            "NORMAL": 25,
            "POSITION": 24,
            "TEXCOORD_0": 26
          },
          "indices": 27,
          "material": 6,
          "mode": 4
        }
      ]
    },
    {
      "name": "PXL_20230910_134616875_PXL_20230910_134616875_0",
      "primitives": [
        {
          "attributes": {
            "NORMAL": 29,
            "POSITION": 28,
            "TEXCOORD_0": 30
          },
          "indices": 31,
          "material": 7,
          "mode": 4
        }
      ]
    },
    {
      "name": "PXL_20230910_125734876_PXL_20230910_125734876_0",
      "primitives": [
        {
          "attributes": {
            "NORMAL": 33,
            "POSITION": 32,
            "TEXCOORD_0": 34
          },
          "indices": 35,
          "material": 8,
          "mode": 4
        }
      ]
    },
    {
      "name": "PXL_20230910_125628925_PXL_20230910_125628925_0",
      "primitives": [
        {
          "attributes": {
            "NORMAL": 37,
            "POSITION": 36,
            "TEXCOORD_0": 38
          },
          "indices": 39,
          "material": 9,
          "mode": 4
        }
      ]
    },
    {
      "name": "PXL_20230910_125554091_PXL_20230910_125554091_0",
      "primitives": [
        {
          "attributes": {
            "NORMAL": 41,
            "POSITION": 40,
            "TEXCOORD_0": 42
          },
          "indices": 43,
          "material": 10,
          "mode": 4
        }
      ]
    },
    {
      "name": "PXL_20230910_125418743_PXL_20230910_125418743_0",
      "primitives": [
        {
          "attributes": {
            "NORMAL": 45,
            "POSITION": 44,
            "TEXCOORD_0": 46
          },
          "indices": 47,
          "material": 11,
          "mode": 4
        }
      ]
    },
    {
      "name": "PXL_20230910_125903073_PXL_20230910_125903073_0",
      "primitives": [
        {
          "attributes": {
            "NORMAL": 49,
            "POSITION": 48,
            "TEXCOORD_0": 50
          },
          "indices": 51,
          "material": 12,
          "mode": 4
        }
      ]
    },
    {
      "name": "PXL_20230910_130057485_PXL_20230910_130057485_0",
      "primitives": [
        {
          "attributes": {
            "NORMAL": 53,
            "POSITION": 52,
            "TEXCOORD_0": 54
          },
          "indices": 55,
          "material": 13,
          "mode": 4
        }
      ]
    },
    {
      "name": "PXL_20230910_130045015_PXL_20230910_130045015_0",
      "primitives": [
        {
          "attributes": {
            "NORMAL": 57,
            "POSITION": 56,
            "TEXCOORD_0": 58
          },
          "indices": 59,
          "material": 14,
          "mode": 4
        }
      ]
    },
    {
      "name": "PXL_20230910_130017469_PXL_20230910_130017469_0",
      "primitives": [
        {
          "attributes": {
            "NORMAL": 61,
            "POSITION": 60,
            "TEXCOORD_0": 62
          },
          "indices": 63,
          "material": 15,
          "mode": 4
        }
      ]
    },
    {
      "name": "PXL_20230910_130012497_PXL_20230910_130012497_0",
      "primitives": [
        {
          "attributes": {
            "NORMAL": 65,
            "POSITION": 64,
            "TEXCOORD_0": 66
          },
          "indices": 67,
          "material": 16,
          "mode": 4
        }
      ]
    },
    {
      "name": "PXL_20230910_125956746_PXL_20230910_125956746_0",
      "primitives": [
        {
          "attributes": {
            "NORMAL": 69,
            "POSITION": 68,
            "TEXCOORD_0": 70
          },
          "indices": 71,
          "material": 17,
          "mode": 4
        }
      ]
    },
    {
      "name": "PXL_20230910_125953194_PXL_20230910_125953194_0",
      "primitives": [
        {
          "attributes": {
            "NORMAL": 73,
            "POSITION": 72,
            "TEXCOORD_0": 74
          },
          "indices": 75,
          "material": 18,
          "mode": 4
        }
      ]
    },
    {
      "name": "PXL_20230910_125906932_PXL_20230910_125906932_0",
      "primitives": [
        {
          "attributes": {
            "NORMAL": 77,
            "POSITION": 76,
            "TEXCOORD_0": 78
          },
          "indices": 79,
          "material": 19,
          "mode": 4
        }
      ]
    },
    {
      "name": "PXL_20230910_125855716_PXL_20230910_125855716_0",
      "primitives": [
        {
          "attributes": {
            "NORMAL": 81,
            "POSITION": 80,
            "TEXCOORD_0": 82
          },
          "indices": 83,
          "material": 20,
          "mode": 4
        }
      ]
    },
    {
      "name": "PXL_20230910_125845031_PXL_20230910_125845031_0",
      "primitives": [
        {
          "attributes": {
            "NORMAL": 85,
            "POSITION": 84,
            "TEXCOORD_0": 86
          },
          "indices": 87,
          "material": 21,
          "mode": 4
        }
      ]
    },
    {
      "name": "PXL_20230910_125838220_PXL_20230910_125838220_0",
      "primitives": [
        {
          "attributes": {
            "NORMAL": 89,
            "POSITION": 88,
            "TEXCOORD_0": 90
          },
          "indices": 91,
          "material": 22,
          "mode": 4
        }
      ]
    },
    {
      "name": "PXL_20230910_125557847_PXL_20230910_125557847_0",
      "primitives": [
        {
          "attributes": {
            "NORMAL": 93,
            "POSITION": 92,
            "TEXCOORD_0": 94
          },
          "indices": 95,
          "material": 23,
          "mode": 4
        }
      ]
    },
    {
      "name": "PXL_20230910_125551189_PXL_20230910_125551189_0",
      "primitives": [
        {
          "attributes": {
            "NORMAL": 97,
            "POSITION": 96,
            "TEXCOORD_0": 98
          },
          "indices": 99,
          "material": 24,
          "mode": 4
        }
      ]
    },
    {
      "name": "PXL_20230910_125548721_PXL_20230910_125548721_0",
      "primitives": [
        {
          "attributes": {
            "NORMAL": 101,
            "POSITION": 100,
            "TEXCOORD_0": 102
          },
          "indices": 103,
          "material": 25,
          "mode": 4
        }
      ]
    },
    {
      "name": "PXL_20230910_125459980_PXL_20230910_125459980_0",
      "primitives": [
        {
          "attributes": {
            "NORMAL": 105,
            "POSITION": 104,
            "TEXCOORD_0": 106
          },
          "indices": 107,
          "material": 26,
          "mode": 4
        }
      ]
    },
    {
      "name": "PXL_20230910_125459980.001_PXL_20230910_125459980_0",
      "primitives": [
        {
          "attributes": {
            "NORMAL": 109,
            "POSITION": 108,
            "TEXCOORD_0": 110
          },
          "indices": 111,
          "material": 26,
          "mode": 4
        }
      ]
    },
    {
      "name": "PXL_20230910_125345708_PXL_20230910_125345708_0",
      "primitives": [
        {
          "attributes": {
            "NORMAL": 113,
            "POSITION": 112,
            "TEXCOORD_0": 114
          },
          "indices": 115,
          "material": 27,
          "mode": 4
        }
      ]
    },
    {
      "name": "PXL_20230910_124158100_PXL_20230910_124158100_0",
      "primitives": [
        {
          "attributes": {
            "NORMAL": 117,
            "POSITION": 116,
            "TEXCOORD_0": 118
          },
          "indices": 119,
          "material": 28,
          "mode": 4
        }
      ]
    },
    {
      "name": "PXL_20230910_130047306_PXL_20230910_130047306_0",
      "primitives": [
        {
          "attributes": {
            "NORMAL": 121,
            "POSITION": 120,
            "TEXCOORD_0": 122
          },
          "indices": 123,
          "material": 29,
          "mode": 4
        }
      ]
    },
    {
      "name": "PXL_20230910_125900712_PXL_20230910_125900712_0",
      "primitives": [
        {
          "attributes": {
            "NORMAL": 125,
            "POSITION": 124,
            "TEXCOORD_0": 126
          },
          "indices": 127,
          "material": 30,
          "mode": 4
        }
      ]
    },
    {
      "name": "PXL_20230910_125900712.001_PXL_20230910_125900712_0",
      "primitives": [
        {
          "attributes": {
            "NORMAL": 129,
            "POSITION": 128,
            "TEXCOORD_0": 130
          },
          "indices": 131,
          "material": 30,
          "mode": 4
        }
      ]
    },
    {
      "name": "PXL_20230910_125841676_PXL_20230910_125841676_0",
      "primitives": [
        {
          "attributes": {
            "NORMAL": 133,
            "POSITION": 132,
            "TEXCOORD_0": 134
          },
          "indices": 135,
          "material": 31,
          "mode": 4
        }
      ]
    },
    {
      "name": "PXL_20230910_125841676.001_PXL_20230910_125841676_0",
      "primitives": [
        {
          "attributes": {
            "NORMAL": 137,
            "POSITION": 136,
            "TEXCOORD_0": 138
          },
          "indices": 139,
          "material": 31,
          "mode": 4
        }
      ]
    },
    {
      "name": "PXL_20230910_125808794_PXL_20230910_125808794_0",
      "primitives": [
        {
          "attributes": {
            "NORMAL": 141,
            "POSITION": 140,
            "TEXCOORD_0": 142
          },
          "indices": 143,
          "material": 32,
          "mode": 4
        }
      ]
    }
  ],
  "nodes": [
    {
      "children": [
        1
      ],
      "matrix": [
        0.11423991620540619,
        0.0,
        0.0,
        0.0,
        0.0,
        2.53663570604981e-17,
        -0.11423991620540619,
        0.0,
        0.0,
        0.11423991620540619,
        2.53663570604981e-17,
        0.0,
        0.0,
        0.0,
        0.0,
        1.0
      ],
      "name": "Sketchfab_model"
    },
    {
      "children": [
        2
      ],
      "matrix": [
        0.009999999776482582,
        0.0,
        0.0,
        0.0,
        0.0,
        0.0,
        0.009999999776482582,
        0.0,
        0.0,
        -0.009999999776482582,
        0.0,
        0.0,
        0.0,
        0.0,
        0.0,
        1.0
      ],
      "name": "STICKER PACK 1.fbx"
    },
    {
      "children": [
        3
      ],
      "name": "Object_2"
    },
    {
      "children": [
        4,
        6,
        8,
        10,
        12,
        14,
        16,
        18,
        20,
        22,
        24,
        26,
        28,
        30,
        32,
        34,
        36,
        38,
        40,
        42,
        44,
        46,
        48,
        50,
        52,
        54,
        56,
        58,
        60,
        62,
        64,
        66,
        68,
        70,
        72,
        74
      ],
      "name": "RootNode"
    },
    {
      "children": [
        5
      ],
      "name": "Cylinder",
      "rotation": [
        -0.7071068286895752,
        0.0,
        0.0,
        0.7071067094802856
      ],
      "scale": [
        100.0,
        100.0,
        100.0
      ]
    },
    {
      "mesh": 0,
      "name": "Cylinder_Material.001_0"
    },
    {
      "children": [
        7
      ],
      "name": "Cylinder.001",
      "rotation": [
        -0.7071068286895752,
        0.0,
        0.0,
        0.7071067094802856
      ],
      "scale": [
        100.0,
        100.0,
        100.0
      ],
      "translation": [
        276.15032958984375,
        0.0,
        0.0
      ]
    },
    {
      "mesh": 1,
      "name": "Cylinder.001_Material.002_0"
    },
    {
      "children": [
        9
      ],
      "name": "Cylinder.004",
      "rotation": [
        -0.7071068286895752,
        0.0,
        0.0,
        0.7071067094802856
      ],
      "scale": [
        100.0,
        100.0,
        100.0
      ],
      "translation": [
        809.5806884765625,
        0.0,
        0.0
      ]
    },
    {
      "mesh": 2,
      "name": "Cylinder.004_Material.005_0"
    },
    {
      "children": [
        11
      ],
      "name": "Plane",
      "rotation": [
        -0.7071068286895752,
        0.0,
        0.0,
        0.7071067094802856
      ],
      "scale": [
        100.0,
        100.0,
        100.0
      ],
      "translation": [
        522.9827270507813,
        99.2212142944336,
        7.618104457855225
      ]
    },
    {
      "mesh": 3,
      "name": "Plane_Material.007_0"
    },
    {
      "children": [
        13
      ],
      "name": "Cylinder.002",
      "rotation": [
        -0.7071068286895752,
        0.0,
        0.0,
        0.7071067094802856
      ],
      "scale": [
        100.0,
        100.0,
        100.0
      ],
      "translation": [
        1063.3739013671875,
        0.0,
        0.0
      ]
    },
    {
      "mesh": 4,
      "name": "Cylinder.002_Material.008_0"
    },
    {
      "children": [
        15
      ],
      "name": "Cylinder.003",
      "rotation": [
        -0.7071068286895752,
        0.0,
        0.0,
        0.7071067094802856
      ],
      "scale": [
        100.0,
        100.0,
        100.0
      ],
      "translation": [
        1314.3826904296875,
        0.0,
        0.0
      ]
    },
    {
      "mesh": 5,
      "name": "Cylinder.003_Material.009_0"
    },
    {
      "children": [
        17
      ],
      "name": "PXL_20230910_134356569",
      "rotation": [
        0.11684206128120422,
        -0.6973863244056702,
        0.6973868012428284,
        0.11684200912714005
      ],
      "scale": [
        913.8984985351563,
        913.8984985351563,
        913.8984375
      ],
      "translation": [
        1.3594865798950195,
        105.38461303710938,
        282.870849609375
      ]
    },
    {
      "mesh": 6,
      "name": "PXL_20230910_134356569_PXL_20230910_134356569_0"
    },
    {
      "children": [
        19
      ],
      "name": "PXL_20230910_134616875",
      "rotation": [
        0.5000001788139343,
        -0.4999998211860657,
        0.5000001192092896,
        0.49999985098838806
      ],
      "scale": [
        793.0487670898438,
        793.0487670898438,
        793.0487670898438
      ],
      "translation": [
        280.64190673828125,
        0.0,
        308.1958312988281
      ]
    },
    {
      "mesh": 7,
      "name": "PXL_20230910_134616875_PXL_20230910_134616875_0"
    },
    {
      "children": [
        21
      ],
      "name": "PXL_20230910_125734876",
      "rotation": [
        6.181730327625701e-08,
        -0.7071065902709961,
        0.7071069478988647,
        1.6858739115832577e-07
      ],
      "scale": [
        511.96337890625,
        511.96337890625,
        511.96337890625
      ],
      "translation": [
        565.3661499023438,
        0.0,
        280.64202880859375
      ]
    },
    {
      "mesh": 8,
      "name": "PXL_20230910_125734876_PXL_20230910_125734876_0"
    },
    {
      "children": [
        23
      ],
      "name": "PXL_20230910_125628925",
      "rotation": [
        0.5000001192092896,
        0.49999988079071045,
        -0.5000000596046448,
        0.49999991059303284
      ],
      "scale": [
        413.7578430175781,
        413.7578430175781,
        413.7578430175781
      ],
      "translation": [
        792.5112915039063,
        0.0,
        272.96923828125
      ]
    },
    {
      "mesh": 9,
      "name": "PXL_20230910_125628925_PXL_20230910_125628925_0"
    },
    {
      "children": [
        25
      ],
      "name": "PXL_20230910_125554091",
      "rotation": [
        6.181731038168436e-08,
        -0.7071065902709961,
        0.7071069478988647,
        1.685874053691805e-07
      ],
      "scale": [
        461.7501220703125,
        461.7501220703125,
        461.7501220703125
      ],
      "translation": [
        1056.1484375,
        0.0,
        296.1883850097656
      ]
    },
    {
      "mesh": 10,
      "name": "PXL_20230910_125554091_PXL_20230910_125554091_0"
    },
    {
      "children": [
        27
      ],
      "name": "PXL_20230910_125418743",
      "rotation": [
        6.181731038168436e-08,
        -0.7071065902709961,
        0.7071069478988647,
        1.685874053691805e-07
      ],
      "scale": [
        771.2911987304688,
        771.2911987304688,
        771.2911987304688
      ],
      "translation": [
        1288.0830078125,
        0.0,
        269.38690185546875
      ]
    },
    {
      "mesh": 11,
      "name": "PXL_20230910_125418743_PXL_20230910_125418743_0"
    },
    {
      "children": [
        29
      ],
      "name": "PXL_20230910_125903073",
      "rotation": [
        6.181730327625701e-08,
        -0.7071065902709961,
        0.7071069478988647,
        1.6858739115832577e-07
      ],
      "scale": [
        747.6045532226563,
        747.6045532226563,
        747.6045532226563
      ],
      "translation": [
        -16.16499900817871,
        0.0,
        589.5816040039063
      ]
    },
    {
      "mesh": 12,
      "name": "PXL_20230910_125903073_PXL_20230910_125903073_0"
    },
    {
      "children": [
        31
      ],
      "name": "PXL_20230910_130057485",
      "rotation": [
        0.02541392855346203,
        -0.706649661064148,
        0.7066501975059509,
        0.025413939729332924
      ],
      "scale": [
        855.2083129882813,
        855.2083129882813,
        855.2083129882813
      ],
      "translation": [
        280.68316650390625,
        0.0,
        659.825927734375
      ]
    },
    {
      "mesh": 13,
      "name": "PXL_20230910_130057485_PXL_20230910_130057485_0"
    },
    {
      "children": [
        33
      ],
      "name": "PXL_20230910_130045015",
      "rotation": [
        2.3742667565329612e-07,
        0.7071070671081543,
        0.7071065306663513,
        -2.0651827981055249e-07
      ],
      "scale": [
        -829.912841796875,
        -829.912841796875,
        -829.912841796875
      ],
      "translation": [
        598.8385009765625,
        0.0,
        634.4940795898438
      ]
    },
    {
      "mesh": 14,
      "name": "PXL_20230910_130045015_PXL_20230910_130045015_0"
    },
    {
      "children": [
        35
      ],
      "name": "PXL_20230910_130017469",
      "rotation": [
        -0.7061579823493958,
        -0.03661351650953293,
        -0.036613523960113525,
        0.706158459186554
      ],
      "scale": [
        1111.224853515625,
        1111.224853515625,
        1111.224853515625
      ],
      "translation": [
        860.2297973632813,
        3.6372763133840635e-05,
        625.395263671875
      ]
    },
    {
      "mesh": 15,
      "name": "PXL_20230910_130017469_PXL_20230910_130017469_0"
    },
    {
      "children": [
        37
      ],
      "name": "PXL_20230910_130012497",
      "rotation": [
        -0.0065726931206882,
        -0.7070759534835815,
        0.7070764899253845,
        -0.006572657730430365
      ],
      "scale": [
        577.2672729492188,
        577.2672729492188,
        577.267333984375
      ],
      "translation": [
        1100.9052734375,
        0.0,
        609.5364379882813
      ]
    },
    {
      "mesh": 16,
      "name": "PXL_20230910_130012497_PXL_20230910_130012497_0"
    },
    {
      "children": [
        39
      ],
      "name": "PXL_20230910_125956746",
      "rotation": [
        2.3742667565329612e-07,
        0.7071070671081543,
        0.7071065306663513,
        -2.0651827981055249e-07
      ],
      "scale": [
        -970.5537719726563,
        -970.5537719726563,
        -970.5537719726563
      ],
      "translation": [
        1443.5770263671875,
        0.0,
        648.282958984375
      ]
    },
    {
      "mesh": 17,
      "name": "PXL_20230910_125956746_PXL_20230910_125956746_0"
    },
    {
      "children": [
        41
      ],
      "name": "PXL_20230910_125953194",
      "rotation": [
        6.181730327625701e-08,
        -0.7071065902709961,
        0.7071069478988647,
        1.6858739115832577e-07
      ],
      "scale": [
        600.8085327148438,
        600.8085327148438,
        600.8085327148438
      ],
      "translation": [
        -5.052955627441406,
        0.0,
        952.573486328125
      ]
    },
    {
      "mesh": 18,
      "name": "PXL_20230910_125953194_PXL_20230910_125953194_0"
    },
    {
      "children": [
        43
      ],
      "name": "PXL_20230910_125906932",
      "rotation": [
        6.181730327625701e-08,
        -0.7071065902709961,
        0.7071069478988647,
        1.6858739115832577e-07
      ],
      "scale": [
        964.5170288085938,
        964.5170288085938,
        964.5170288085938
      ],
      "translation": [
        336.3402404785156,
        0.0,
        1100.8502197265625
      ]
    },
    {
      "mesh": 19,
      "name": "PXL_20230910_125906932_PXL_20230910_125906932_0"
    },
    {
      "children": [
        45
      ],
      "name": "PXL_20230910_125855716",
      "rotation": [
        -0.007042693439871073,
        -0.7070714831352234,
        0.7070720195770264,
        -0.007042658980935812
      ],
      "scale": [
        494.96929931640625,
        494.96929931640625,
        494.9693298339844
      ],
      "translation": [
        715.450927734375,
        0.0,
        902.454833984375
      ]
    },
    {
      "mesh": 20,
      "name": "PXL_20230910_125855716_PXL_20230910_125855716_0"
    },
    {
      "children": [
        47
      ],
      "name": "PXL_20230910_125845031",
      "rotation": [
        -0.7071065902709961,
        -2.2476529082382513e-08,
        -2.528811648971896e-07,
        0.7071069478988647
      ],
      "scale": [
        682.6237182617188,
        682.6237182617188,
        682.6237182617188
      ],
      "translation": [
        731.1947631835938,
        0.0,
        1279.34814453125
      ]
    },
    {
      "mesh": 21,
      "name": "PXL_20230910_125845031_PXL_20230910_125845031_0"
    },
    {
      "children": [
        49
      ],
      "name": "PXL_20230910_125838220",
      "rotation": [
        -0.06181631609797478,
        0.7043997049331665,
        0.7043994665145874,
        0.061815954744815826
      ],
      "scale": [
        889.5158081054688,
        889.5158081054688,
        889.515869140625
      ],
      "translation": [
        2306.63671875,
        13.006758689880371,
        882.802490234375
      ]
    },
    {
      "mesh": 22,
      "name": "PXL_20230910_125838220_PXL_20230910_125838220_0"
    },
    {
      "children": [
        51
      ],
      "name": "PXL_20230910_125557847",
      "rotation": [
        6.181730327625701e-08,
        -0.7071065902709961,
        0.7071069478988647,
        1.6858739115832577e-07
      ],
      "scale": [
        416.0733337402344,
        537.8900756835938,
        537.8900756835938
      ],
      "translation": [
        1167.752685546875,
        0.0,
        1142.1932373046875
      ]
    },
    {
      "mesh": 23,
      "name": "PXL_20230910_125557847_PXL_20230910_125557847_0"
    },
    {
      "children": [
        53
      ],
      "name": "PXL_20230910_125551189",
      "rotation": [
        6.181730327625701e-08,
        -0.7071065902709961,
        0.7071069478988647,
        1.6858739115832577e-07
      ],
      "scale": [
        546.6524658203125,
        546.6524658203125,
        546.6524658203125
      ],
      "translation": [
        1499.0535888671875,
        0.0,
        865.4970092773438
      ]
    },
    {
      "mesh": 24,
      "name": "PXL_20230910_125551189_PXL_20230910_125551189_0"
    },
    {
      "children": [
        55
      ],
      "name": "PXL_20230910_125548721",
      "rotation": [
        -0.7071065902709961,
        -2.247653796416671e-08,
        -2.5288113647548016e-07,
        0.7071069478988647
      ],
      "scale": [
        201.45025634765625,
        254.75428771972656,
        254.75428771972656
      ],
      "translation": [
        1428.255859375,
        0.0,
        1111.2091064453125
      ]
    },
    {
      "mesh": 25,
      "name": "PXL_20230910_125548721_PXL_20230910_125548721_0"
    },
    {
      "children": [
        57
      ],
      "name": "PXL_20230910_125459980",
      "rotation": [
        -0.704515814781189,
        0.06047395244240761,
        0.0604734942317009,
        0.7045164704322815
      ],
      "scale": [
        1122.963134765625,
        1122.963134765625,
        1122.963134765625
      ],
      "translation": [
        1747.3525390625,
        3.875078618875705e-05,
        1029.6727294921875
      ]
    },
    {
      "mesh": 26,
      "name": "PXL_20230910_125459980_PXL_20230910_125459980_0"
    },
    {
      "children": [
        59
      ],
      "name": "PXL_20230910_125459980.001",
      "rotation": [
        -0.7063214182853699,
        0.03331005945801735,
        0.03330962359905243,
        0.7063221335411072
      ],
      "scale": [
        671.1585083007813,
        671.1585083007813,
        671.158447265625
      ],
      "translation": [
        1748.0623779296875,
        0.00019122262892778963,
        868.0479736328125
      ]
    },
    {
      "mesh": 27,
      "name": "PXL_20230910_125459980.001_PXL_20230910_125459980_0"
    },
    {
      "children": [
        61
      ],
      "name": "PXL_20230910_125345708",
      "rotation": [
        0.5000001192092896,
        0.49999988079071045,
        -0.5000000596046448,
        0.49999991059303284
      ],
      "scale": [
        -291.6796569824219,
        -217.0860595703125,
        -291.6796569824219
      ],
      "translation": [
        1592.0665283203125,
        0.0,
        12.597036361694336
      ]
    },
    {
      "mesh": 28,
      "name": "PXL_20230910_125345708_PXL_20230910_125345708_0"
    },
    {
      "children": [
        63
      ],
      "name": "PXL_20230910_124158100",
      "rotation": [
        -0.7071068286895752,
        -2.6692545063156103e-08,
        -5.760115939779098e-08,
        0.7071067094802856
      ],
      "scale": [
        865.0609741210938,
        865.0609741210938,
        865.0609741210938
      ],
      "translation": [
        1627.2281494140625,
        0.0,
        291.9646911621094
      ]
    },
    {
      "mesh": 29,
      "name": "PXL_20230910_124158100_PXL_20230910_124158100_0"
    },
    {
      "children": [
        65
      ],
      "name": "PXL_20230910_130047306",
      "rotation": [
        -0.7071065902709961,
        -2.2476548622307746e-08,
        -2.528811648971896e-07,
        0.7071069478988647
      ],
      "scale": [
        572.9724731445313,
        572.9724731445313,
        572.9724731445313
      ],
      "translation": [
        1824.65283203125,
        0.0,
        659.3116455078125
      ]
    },
    {
      "mesh": 30,
      "name": "PXL_20230910_130047306_PXL_20230910_130047306_0"
    },
    {
      "children": [
        67
      ],
      "name": "PXL_20230910_125900712",
      "rotation": [
        -0.7069132328033447,
        -0.01652616076171398,
        -0.016526538878679276,
        0.7069140076637268
      ],
      "scale": [
        996.1678466796875,
        996.1678466796875,
        996.16796875
      ],
      "translation": [
        1881.5179443359375,
        -0.0001998452644329518,
        256.68365478515625
      ]
    },
    {
      "mesh": 31,
      "name": "PXL_20230910_125900712_PXL_20230910_125900712_0"
    },
    {
      "children": [
        69
      ],
      "name": "PXL_20230910_125900712.001",
      "rotation": [
        -0.7069089412689209,
        0.016708895564079285,
        0.016708480194211006,
        0.7069097757339478
      ],
      "scale": [
        996.16796875,
        996.16796875,
        996.16796875
      ],
      "translation": [
        2038.7054443359375,
        0.0,
        155.84872436523438
      ]
    },
    {
      "mesh": 32,
      "name": "PXL_20230910_125900712.001_PXL_20230910_125900712_0"
    },
    {
      "children": [
        71
      ],
      "name": "PXL_20230910_125841676",
      "rotation": [
        6.181728906540229e-08,
        -0.7071065902709961,
        0.7071069478988647,
        1.6858737694747106e-07
      ],
      "scale": [
        810.763671875,
        810.763671875,
        810.763671875
      ],
      "translation": [
        2085.695068359375,
        1.0718060366343707e-05,
        801.4917602539063
      ]
    },
    {
      "mesh": 33,
      "name": "PXL_20230910_125841676_PXL_20230910_125841676_0"
    },
    {
      "children": [
        73
      ],
      "name": "PXL_20230910_125841676.001",
      "rotation": [
        6.181728906540229e-08,
        -0.7071065902709961,
        0.7071069478988647,
        1.6858737694747106e-07
      ],
      "scale": [
        810.763671875,
        810.763671875,
        810.763671875
      ],
      "translation": [
        2159.156494140625,
        0.0,
        584.928955078125
      ]
    },
    {
      "mesh": 34,
      "name": "PXL_20230910_125841676.001_PXL_20230910_125841676_0"
    },
    {
      "children": [
        75
      ],
      "name": "PXL_20230910_125808794",
      "rotation": [
        -0.7068272233009338,
        0.019868770614266396,
        0.01986835151910782,
        0.7068279385566711
      ],
      "scale": [
        692.036865234375,
        692.036865234375,
        692.0369262695313
      ],
      "translation": [
        2332.89404296875,
        0.0,
        433.302978515625
      ]
    },
    {
      "mesh": 35,
      "name": "PXL_20230910_125808794_PXL_20230910_125808794_0"
    }
  ],
  "samplers": [
    {
      "magFilter": 9729,
      "minFilter": 9987,
      "wrapS": 10497,
      "wrapT": 10497
    },
    {
      "magFilter": 9729,
      "minFilter": 9987,
      "wrapS": 33071,
      "wrapT": 33071
    }
  ],
  "scene": 0,
  "scenes": [
    {
      "name": "Sketchfab_Scene",
      "nodes": [
        0
      ]
    }
  ],
  "textures": [
    {
      "sampler": 0,
      "source": 0
    },
    {
      "sampler": 0,
      "source": 1
    },
    {
      "sampler": 0,
      "source": 2
    },
    {
      "sampler": 0,
      "source": 3
    },
    {
      "sampler": 0,
      "source": 4
    },
    {
      "sampler": 0,
      "source": 5
    },
    {
      "sampler": 1,
      "source": 6
    },
    {
      "sampler": 1,
      "source": 7
    },
    {
      "sampler": 1,
      "source": 8
    },
    {
      "sampler": 1,
      "source": 9
    },
    {
      "sampler": 1,
      "source": 10
    },
    {
      "sampler": 1,
      "source": 11
    },
    {
      "sampler": 1,
      "source": 12
    },
    {
      "sampler": 1,
      "source": 13
    },
    {
      "sampler": 0,
      "source": 14
    },
    {
      "sampler": 1,
      "source": 15
    },
    {
      "sampler": 1,
      "source": 16
    },
    {
      "sampler": 1,
      "source": 17
    },
    {
      "sampler": 1,
      "source": 18
    },
    {
      "sampler": 1,
      "source": 19
    },
    {
      "sampler": 1,
      "source": 20
    },
    {
      "sampler": 1,
      "source": 21
    },
    {
      "sampler": 0,
      "source": 22
    },
    {
      "sampler": 1,
      "source": 23
    },
    {
      "sampler": 1,
      "source": 24
    },
    {
      "sampler": 1,
      "source": 25
    },
    {
      "sampler": 1,
      "source": 26
    },
    {
      "sampler": 1,
      "source": 27
    },
    {
      "sampler": 1,
      "source": 28
    },
    {
      "sampler": 1,
      "source": 29
    },
    {
      "sampler": 1,
      "source": 30
    },
    {
      "sampler": 1,
      "source": 31
    },
    {
      "sampler": 1,
      "source": 32
    }
  ]
}
