{
  "accessors": [
    {
      "bufferView": 1,
      "componentType": 5126,
      "count": 65532,
      "max": [
        -18.399999618530273,
        162.83155822753906,
        -503.48370361328125
      ],
      "min": [
        -78.87999725341797,
        -97.56522369384766,
        -681.6281127929688
      ],
      "type": "VEC3"
    },
    {
      "bufferView": 1,
      "byteOffset": 786384,
      "componentType": 5126,
      "count": 65532,
      "max": [
        0.9824565649032593,
        0.9998730421066284,
        0.9999703764915466
      ],
      "min": [
        -0.9999556541442871,
        -0.9999671578407288,
        -1.0
      ],
      "type": "VEC3"
    },
    {
      "bufferView": 2,
      "componentType": 5126,
      "count": 65532,
      "max": [
        1.0,
        0.7215686440467834,
        0.6313725709915161,
        1.0
      ],
      "min": [
        0.062745101749897,
        0.0,
        0.0117647061124444,
        1.0
      ],
      "type": "VEC4"
    },
    {
      "bufferView": 0,
      "componentType": 5125,
      "count": 326394,
      "type": "SCALAR"
    },
    {
      "bufferView": 1,
      "byteOffset": 1572768,
      "componentType": 5126,
      "count": 65532,
      "max": [
        47.84000015258789,
        161.16812133789063,
        -451.1967468261719
      ],
      "min": [
        -77.27999877929688,
        -97.8887939453125,
        -678.859130859375
      ],
      "type": "VEC3"
    },
    {
      "bufferView": 1,
      "byteOffset": 2359152,
      "componentType": 5126,
      "count": 65532,
      "max": [
        0.9994778633117676,
        0.9970924258232117,
        0.9998939037322998
      ],
      "min": [
        -0.999992847442627,
        -0.9959574937820435,
        -0.9980153441429138
      ],
      "type": "VEC3"
    },
    {
      "bufferView": 2,
      "byteOffset": 1048512,
      "componentType": 5126,
      "count": 65532,
      "max": [
        1.0,
        0.6980392336845398,
        0.6705882549285889,
        1.0
      ],
      "min": [
        0.11764705926179886,
        0.03529411926865578,
        0.007843137718737125,
        1.0
      ],
      "type": "VEC4"
    },
    {
      "bufferView": 0,
      "byteOffset": 1305576,
      "componentType": 5125,
      "count": 319644,
      "type": "SCALAR"
    },
    {
      "bufferView": 1,
      "byteOffset": 3145536,
      "componentType": 5126,
      "count": 65532,
      "max": [
        61.63152313232422,
        157.04835510253906,
        -457.1724548339844
      ],
      "min": [
        -52.11758041381836,
        -15.519999504089355,
        -655.4931640625
      ],
      "type": "VEC3"
    },
    {
      "bufferView": 1,
      "byteOffset": 3931920,
      "componentType": 5126,
      "count": 65532,
      "max": [
        1.0,
        0.9448148608207703,
        0.9995293617248535
      ],
      "min": [
        -0.9999862313270569,
        -0.9242335557937622,
        -0.9563565850257874
      ],
      "type": "VEC3"
    },
    {
      "bufferView": 2,
      "byteOffset": 2097024,
      "componentType": 5126,
      "count": 65532,
      "max": [
        1.0,
        0.9215686321258545,
        0.8588235378265381,
        1.0
      ],
      "min": [
        0.10588235408067703,
        0.01568627543747425,
        0.0,
        1.0
      ],
      "type": "VEC4"
    },
    {
      "bufferView": 0,
      "byteOffset": 2584152,
      "componentType": 5125,
      "count": 334023,
      "type": "SCALAR"
    },
    {
      "bufferView": 1,
      "byteOffset": 4718304,
      "componentType": 5126,
      "count": 65532,
      "max": [
        62.02934646606445,
        158.87998962402344,
        -458.2705078125
      ],
      "min": [
        -54.578819274902344,
        -24.15999984741211,
        -673.0100708007813
      ],
      "type": "VEC3"
    },
    {
      "bufferView": 1,
      "byteOffset": 5504688,
      "componentType": 5126,
      "count": 65532,
      "max": [
        1.0,
        0.9985894560813904,
        0.9987590312957764
      ],
      "min": [
        -0.9998899102210999,
        -0.9896318316459656,
        -0.9999457001686096
      ],
      "type": "VEC3"
    },
    {
      "bufferView": 2,
      "byteOffset": 3145536,
      "componentType": 5126,
      "count": 65532,
      "max": [
        1.0,
        1.0,
        1.0,
        1.0
      ],
      "min": [
        0.23529411852359772,
        0.09019608050584793,
        0.05882352963089943,
        1.0
      ],
      "type": "VEC4"
    },
    {
      "bufferView": 0,
      "byteOffset": 3920244,
      "componentType": 5125,
      "count": 315867,
      "type": "SCALAR"
    },
    {
      "bufferView": 1,
      "byteOffset": 6291072,
      "componentType": 5126,
      "count": 65532,
      "max": [
        62.0931396484375,
        161.3709259033203,
        -450.4938049316406
      ],
      "min": [
        -58.41475296020508,
        -29.279998779296875,
        -668.0538330078125
      ],
      "type": "VEC3"
    },
    {
      "bufferView": 1,
      "byteOffset": 7077456,
      "componentType": 5126,
      "count": 65532,
      "max": [
        0.9999566078186035,
        0.9827119708061218,
        0.9997170567512512
      ],
      "min": [
        -0.9998581409454346,
        -0.8856676816940308,
        -0.8905760049819946
      ],
      "type": "VEC3"
    },
    {
      "bufferView": 2,
      "byteOffset": 4194048,
      "componentType": 5126,
      "count": 65532,
      "max": [
        1.0,
        0.9333333373069763,
        0.8078431487083435,
        1.0
      ],
      "min": [
        0.14901961386203766,
        0.09019608050584793,
        0.0941176488995552,
        1.0
      ],
      "type": "VEC4"
    },
    {
      "bufferView": 0,
      "byteOffset": 5183712,
      "componentType": 5125,
      "count": 330402,
      "type": "SCALAR"
    },
    {
      "bufferView": 1,
      "byteOffset": 7863840,
      "componentType": 5126,
      "count": 65532,
      "max": [
        63.09531021118164,
        162.74441528320313,
        -454.3379821777344
      ],
      "min": [
        -78.49967956542969,
        -100.04363250732422,
        -678.6627807617188
      ],
      "type": "VEC3"
    },
    {
      "bufferView": 1,
      "byteOffset": 8650224,
      "componentType": 5126,
      "count": 65532,
      "max": [
        0.9999534487724304,
        0.9990070462226868,
        0.9997838139533997
      ],
      "min": [
        -0.9999247789382935,
        -0.9999541640281677,
        -0.9922025203704834
      ],
      "type": "VEC3"
    },
    {
      "bufferView": 2,
      "byteOffset": 5242560,
      "componentType": 5126,
      "count": 65532,
      "max": [
        1.0,
        1.0,
        0.9686274528503418,
        1.0
      ],
      "min": [
        0.14509804546833038,
        0.05882352963089943,
        0.0470588244497776,
        1.0
      ],
      "type": "VEC4"
    },
    {
      "bufferView": 0,
      "byteOffset": 6505320,
      "componentType": 5125,
      "count": 314043,
      "type": "SCALAR"
    },
    {
      "bufferView": 1,
      "byteOffset": 9436608,
      "componentType": 5126,
      "count": 65532,
      "max": [
        63.30902099609375,
        162.7458953857422,
        -450.7200012207031
      ],
      "min": [
        -72.82784271240234,
        -97.31664276123047,
        -680.03369140625
      ],
      "type": "VEC3"
    },
    {
      "bufferView": 1,
      "byteOffset": 10222992,
      "componentType": 5126,
      "count": 65532,
      "max": [
        0.9999836087226868,
        0.9996946454048157,
        0.9999054670333862
      ],
      "min": [
        -0.9999587535858154,
        -0.9983643293380737,
        -0.9999996423721313
      ],
      "type": "VEC3"
    },
    {
      "bufferView": 2,
      "byteOffset": 6291072,
      "componentType": 5126,
      "count": 65532,
      "max": [
        1.0,
        0.6745098233222961,
        0.6274510025978088,
        1.0
      ],
      "min": [
        0.125490203499794,
        0.054901961237192154,
        0.03921568766236305,
        1.0
      ],
      "type": "VEC4"
    },
    {
      "bufferView": 0,
      "byteOffset": 7761492,
      "componentType": 5125,
      "count": 308916,
      "type": "SCALAR"
    },
    {
      "bufferView": 1,
      "byteOffset": 11009376,
      "componentType": 5126,
      "count": 65532,
      "max": [
        56.56233596801758,
        162.7664337158203,
        -452.7853698730469
      ],
      "min": [
        -59.396507263183594,
        -82.1133804321289,
        -618.2020874023438
      ],
      "type": "VEC3"
    },
    {
      "bufferView": 1,
      "byteOffset": 11795760,
      "componentType": 5126,
      "count": 65532,
      "max": [
        0.998537003993988,
        0.9848348498344421,
        0.9044233560562134
      ],
      "min": [
        -1.0,
        -0.7204263806343079,
        -0.8955426216125488
      ],
      "type": "VEC3"
    },
    {
      "bufferView": 2,
      "byteOffset": 7339584,
      "componentType": 5126,
      "count": 65532,
      "max": [
        1.0,
        0.6823529601097107,
        0.6196078658103943,
        1.0
      ],
      "min": [
        0.07058823853731155,
        0.01568627543747425,
        0.0,
        1.0
      ],
      "type": "VEC4"
    },
    {
      "bufferView": 0,
      "byteOffset": 8997156,
      "componentType": 5125,
      "count": 321627,
      "type": "SCALAR"
    },
    {
      "bufferView": 1,
      "byteOffset": 12582144,
      "componentType": 5126,
      "count": 65532,
      "max": [
        63.32664489746094,
        159.47811889648438,
        -453.10748291015625
      ],
      "min": [
        -70.70719146728516,
        -66.68537139892578,
        -678.8800048828125
      ],
      "type": "VEC3"
    },
    {
      "bufferView": 1,
      "byteOffset": 13368528,
      "componentType": 5126,
      "count": 65532,
      "max": [
        0.9999583959579468,
        0.981081485748291,
        0.9995551109313965
      ],
      "min": [
        -1.0,
        -0.9709563851356506,
        -0.999707818031311
      ],
      "type": "VEC3"
    },
    {
      "bufferView": 2,
      "byteOffset": 8388096,
      "componentType": 5126,
      "count": 65532,
      "max": [
        1.0,
        0.6313725709915161,
        0.5764706134796143,
        1.0
      ],
      "min": [
        0.11372549086809158,
        0.08627451211214066,
        0.08627451211214066,
        1.0
      ],
      "type": "VEC4"
    },
    {
      "bufferView": 0,
      "byteOffset": 10283664,
      "componentType": 5125,
      "count": 320463,
      "type": "SCALAR"
    },
    {
      "bufferView": 1,
      "byteOffset": 14154912,
      "componentType": 5126,
      "count": 65532,
      "max": [
        62.909873962402344,
        150.87998962402344,
        -455.8399963378906
      ],
      "min": [
        -51.68073654174805,
        -34.455318450927734,
        -616.47998046875
      ],
      "type": "VEC3"
    },
    {
      "bufferView": 1,
      "byteOffset": 14941296,
      "componentType": 5126,
      "count": 65532,
      "max": [
        1.0,
        0.9864663481712341,
        0.8188654780387878
      ],
      "min": [
        -0.9983014464378357,
        -0.9991711974143982,
        -0.8330568671226501
      ],
      "type": "VEC3"
    },
    {
      "bufferView": 2,
      "byteOffset": 9436608,
      "componentType": 5126,
      "count": 65532,
      "max": [
        1.0,
        0.9411764740943909,
        0.8588235378265381,
        1.0
      ],
      "min": [
        0.16470588743686676,
        0.0117647061124444,
        0.0,
        1.0
      ],
      "type": "VEC4"
    },
    {
      "bufferView": 0,
      "byteOffset": 11565516,
      "componentType": 5125,
      "count": 326721,
      "type": "SCALAR"
    },
    {
      "bufferView": 1,
      "byteOffset": 15727680,
      "componentType": 5126,
      "count": 65532,
      "max": [
        63.39164733886719,
        149.27999877929688,
        -458.138427734375
      ],
      "min": [
        -50.58424377441406,
        -67.34393310546875,
        -655.5291137695313
      ],
      "type": "VEC3"
    },
    {
      "bufferView": 1,
      "byteOffset": 16514064,
      "componentType": 5126,
      "count": 65532,
      "max": [
        1.0,
        0.9902323484420776,
        0.950773298740387
      ],
      "min": [
        -0.9936994910240173,
        -0.9447714686393738,
        -0.9732685089111328
      ],
      "type": "VEC3"
    },
    {
      "bufferView": 2,
      "byteOffset": 10485120,
      "componentType": 5126,
      "count": 65532,
      "max": [
        1.0,
        0.6666666865348816,
        0.6313725709915161,
        1.0
      ],
      "min": [
        0.16470588743686676,
        0.09019608050584793,
        0.10588235408067703,
        1.0
      ],
      "type": "VEC4"
    },
    {
      "bufferView": 0,
      "byteOffset": 12872400,
      "componentType": 5125,
      "count": 332175,
      "type": "SCALAR"
    },
    {
      "bufferView": 1,
      "byteOffset": 17300448,
      "componentType": 5126,
      "count": 65532,
      "max": [
        62.60889434814453,
        153.44000244140625,
        -477.21575927734375
      ],
      "min": [
        -71.5199966430664,
        -61.619083404541016,
        -679.9471435546875
      ],
      "type": "VEC3"
    },
    {
      "bufferView": 1,
      "byteOffset": 18086832,
      "componentType": 5126,
      "count": 65532,
      "max": [
        0.999315083026886,
        0.9771209359169006,
        0.7294869422912598
      ],
      "min": [
        -0.9999761581420898,
        -0.8444187641143799,
        -1.0
      ],
      "type": "VEC3"
    },
    {
      "bufferView": 2,
      "byteOffset": 11533632,
      "componentType": 5126,
      "count": 65532,
      "max": [
        1.0,
        0.7411764860153198,
        0.6627451181411743,
        1.0
      ],
      "min": [
        0.3137255012989044,
        0.16470588743686676,
        0.14901961386203766,
        1.0
      ],
      "type": "VEC4"
    },
    {
      "bufferView": 0,
      "byteOffset": 14201100,
      "componentType": 5125,
      "count": 321663,
      "type": "SCALAR"
    },
    {
      "bufferView": 1,
      "byteOffset": 18873216,
      "componentType": 5126,
      "count": 65532,
      "max": [
        62.07368850708008,
        134.87998962402344,
        -467.409912109375
      ],
      "min": [
        -61.279998779296875,
        -49.60080337524414,
        -678.6417236328125
      ],
      "type": "VEC3"
    },
    {
      "bufferView": 1,
      "byteOffset": 19659600,
      "componentType": 5126,
      "count": 65532,
      "max": [
        0.9999569654464722,
        0.9634838104248047,
        0.9970758557319641
      ],
      "min": [
        -0.9982452988624573,
        -0.9941316246986389,
        -0.9999043941497803
      ],
      "type": "VEC3"
    },
    {
      "bufferView": 2,
      "byteOffset": 12582144,
      "componentType": 5126,
      "count": 65532,
      "max": [
        1.0,
        0.7254902124404907,
        0.6705882549285889,
        1.0
      ],
      "min": [
        0.1764705926179886,
        0.10196078568696976,
        0.10588235408067703,
        1.0
      ],
      "type": "VEC4"
    },
    {
      "bufferView": 0,
      "byteOffset": 15487752,
      "componentType": 5125,
      "count": 325968,
      "type": "SCALAR"
    },
    {
      "bufferView": 1,
      "byteOffset": 20445984,
      "componentType": 5126,
      "count": 65532,
      "max": [
        61.599998474121094,
        148.3199920654297,
        -461.2799987792969
      ],
      "min": [
        -69.34575653076172,
        -21.98651123046875,
        -678.3919677734375
      ],
      "type": "VEC3"
    },
    {
      "bufferView": 1,
      "byteOffset": 21232368,
      "componentType": 5126,
      "count": 65532,
      "max": [
        0.9999862909317017,
        0.9625858068466187,
        0.9990996718406677
      ],
      "min": [
        -0.9998430609703064,
        -0.9626069068908691,
        -0.9995225667953491
      ],
      "type": "VEC3"
    },
    {
      "bufferView": 2,
      "byteOffset": 13630656,
      "componentType": 5126,
      "count": 65532,
      "max": [
        1.0,
        0.8588235378265381,
        0.7411764860153198,
        1.0
      ],
      "min": [
        0.062745101749897,
        0.0,
        0.0117647061124444,
        1.0
      ],
      "type": "VEC4"
    },
    {
      "bufferView": 0,
      "byteOffset": 16791624,
      "componentType": 5125,
      "count": 312288,
      "type": "SCALAR"
    },
    {
      "bufferView": 1,
      "byteOffset": 22018752,
      "componentType": 5126,
      "count": 65532,
      "max": [
        61.445159912109375,
        162.08164978027344,
        -466.2578125
      ],
      "min": [
        -71.83999633789063,
        -22.107707977294922,
        -680.1010131835938
      ],
      "type": "VEC3"
    },
    {
      "bufferView": 1,
      "byteOffset": 22805136,
      "componentType": 5126,
      "count": 65532,
      "max": [
        1.0,
        0.9999572038650513,
        0.947482168674469
      ],
      "min": [
        -0.9985058903694153,
        -0.8211384415626526,
        -0.9994634389877319
      ],
      "type": "VEC3"
    },
    {
      "bufferView": 2,
      "byteOffset": 14679168,
      "componentType": 5126,
      "count": 65532,
      "max": [
        1.0,
        0.9647058844566345,
        0.8901960849761963,
        1.0
      ],
      "min": [
        0.0784313753247261,
        0.0,
        0.08627451211214066,
        1.0
      ],
      "type": "VEC4"
    },
    {
      "bufferView": 0,
      "byteOffset": 18040776,
      "componentType": 5125,
      "count": 326607,
      "type": "SCALAR"
    },
    {
      "bufferView": 1,
      "byteOffset": 23591520,
      "componentType": 5126,
      "count": 65532,
      "max": [
        60.05607986450195,
        157.50631713867188,
        -465.65234375
      ],
      "min": [
        -78.23999786376953,
        -83.7198715209961,
        -668.3200073242188
      ],
      "type": "VEC3"
    },
    {
      "bufferView": 1,
      "byteOffset": 24377904,
      "componentType": 5126,
      "count": 65532,
      "max": [
        0.9996140003204346,
        0.9998106360435486,
        0.998790442943573
      ],
      "min": [
        -0.999992847442627,
        -0.9984825253486633,
        -0.9987682700157166
      ],
      "type": "VEC3"
    },
    {
      "bufferView": 2,
      "byteOffset": 15727680,
      "componentType": 5126,
      "count": 65532,
      "max": [
        1.0,
        0.6745098233222961,
        0.6352941393852234,
        1.0
      ],
      "min": [
        0.08235294371843338,
        0.054901961237192154,
        0.08235294371843338,
        1.0
      ],
      "type": "VEC4"
    },
    {
      "bufferView": 0,
      "byteOffset": 19347204,
      "componentType": 5125,
      "count": 300108,
      "type": "SCALAR"
    },
    {
      "bufferView": 1,
      "byteOffset": 25164288,
      "componentType": 5126,
      "count": 65532,
      "max": [
        48.47995376586914,
        92.21925354003906,
        -483.3599853515625
      ],
      "min": [
        -61.92068862915039,
        -95.35076904296875,
        -679.5302124023438
      ],
      "type": "VEC3"
    },
    {
      "bufferView": 1,
      "byteOffset": 25950672,
      "componentType": 5126,
      "count": 65532,
      "max": [
        0.9899007678031921,
        0.9982251524925232,
        0.9843624234199524
      ],
      "min": [
        -0.9877083897590637,
        -1.0,
        -0.9999398589134216
      ],
      "type": "VEC3"
    },
    {
      "bufferView": 2,
      "byteOffset": 16776192,
      "componentType": 5126,
      "count": 65532,
      "max": [
        1.0,
        0.9960784316062927,
        0.9372549057006836,
        1.0
      ],
      "min": [
        0.10196078568696976,
        0.0,
        0.06666667014360428,
        1.0
      ],
      "type": "VEC4"
    },
    {
      "bufferView": 0,
      "byteOffset": 20547636,
      "componentType": 5125,
      "count": 330207,
      "type": "SCALAR"
    },
    {
      "bufferView": 1,
      "byteOffset": 26737056,
      "componentType": 5126,
      "count": 65532,
      "max": [
        59.986515045166016,
        157.59999084472656,
        -458.3999938964844
      ],
      "min": [
        -64.21416473388672,
        -103.01915740966797,
        -679.4722900390625
      ],
      "type": "VEC3"
    },
    {
      "bufferView": 1,
      "byteOffset": 27523440,
      "componentType": 5126,
      "count": 65532,
      "max": [
        0.9984438419342041,
        0.9407774806022644,
        0.9999518990516663
      ],
      "min": [
        -0.9999243021011353,
        -0.9999930262565613,
        -0.999760627746582
      ],
      "type": "VEC3"
    },
    {
      "bufferView": 2,
      "byteOffset": 17824704,
      "componentType": 5126,
      "count": 65532,
      "max": [
        1.0,
        0.9215686321258545,
        0.8745098114013672,
        1.0
      ],
      "min": [
        0.21960784494876862,
        0.16862745583057404,
        0.13333334028720856,
        1.0
      ],
      "type": "VEC4"
    },
    {
      "bufferView": 0,
      "byteOffset": 21868464,
      "componentType": 5125,
      "count": 322224,
      "type": "SCALAR"
    },
    {
      "bufferView": 1,
      "byteOffset": 28309824,
      "componentType": 5126,
      "count": 65532,
      "max": [
        54.95291519165039,
        153.85617065429688,
        -450.5025634765625
      ],
      "min": [
        -76.63999938964844,
        -102.65165710449219,
        -673.760009765625
      ],
      "type": "VEC3"
    },
    {
      "bufferView": 1,
      "byteOffset": 29096208,
      "componentType": 5126,
      "count": 65532,
      "max": [
        0.9940313696861267,
        0.999859094619751,
        0.9997170567512512
      ],
      "min": [
        -0.9999097585678101,
        -0.9999015927314758,
        -0.9957359433174133
      ],
      "type": "VEC3"
    },
    {
      "bufferView": 2,
      "byteOffset": 18873216,
      "componentType": 5126,
      "count": 65532,
      "max": [
        1.0,
        0.8980392217636108,
        0.8588235378265381,
        1.0
      ],
      "min": [
        0.2705882489681244,
        0.13725490868091583,
        0.10588235408067703,
        1.0
      ],
      "type": "VEC4"
    },
    {
      "bufferView": 0,
      "byteOffset": 23157360,
      "componentType": 5125,
      "count": 317256,
      "type": "SCALAR"
    },
    {
      "bufferView": 1,
      "byteOffset": 29882592,
      "componentType": 5126,
      "count": 65532,
      "max": [
        62.4085807800293,
        160.8131866455078,
        -464.1659240722656
      ],
      "min": [
        -78.55999755859375,
        -99.68000030517578,
        -677.8690185546875
      ],
      "type": "VEC3"
    },
    {
      "bufferView": 1,
      "byteOffset": 30668976,
      "componentType": 5126,
      "count": 65532,
      "max": [
        0.9999849796295166,
        0.9943878650665283,
        0.9999754428863525
      ],
      "min": [
        -0.9956128001213074,
        -0.9999848008155823,
        -0.9568507075309753
      ],
      "type": "VEC3"
    },
    {
      "bufferView": 2,
      "byteOffset": 19921728,
      "componentType": 5126,
      "count": 65532,
      "max": [
        1.0,
        1.0,
        1.0,
        1.0
      ],
      "min": [
        0.2078431397676468,
        0.11764705926179886,
        0.12156862765550613,
        1.0
      ],
      "type": "VEC4"
    },
    {
      "bufferView": 0,
      "byteOffset": 24426384,
      "componentType": 5125,
      "count": 322359,
      "type": "SCALAR"
    },
    {
      "bufferView": 1,
      "byteOffset": 31455360,
      "componentType": 5126,
      "count": 65532,
      "max": [
        61.35688400268555,
        159.1999969482422,
        -454.8800048828125
      ],
      "min": [
        -78.23999786376953,
        -102.5394515991211,
        -673.3569946289063
      ],
      "type": "VEC3"
    },
    {
      "bufferView": 1,
      "byteOffset": 32241744,
      "componentType": 5126,
      "count": 65532,
      "max": [
        0.9981716871261597,
        0.9881995320320129,
        0.999812126159668
      ],
      "min": [
        -0.9993265867233276,
        -0.9999917149543762,
        -0.9999779462814331
      ],
      "type": "VEC3"
    },
    {
      "bufferView": 2,
      "byteOffset": 20970240,
      "componentType": 5126,
      "count": 65532,
      "max": [
        1.0,
        1.0,
        0.9137254953384399,
        1.0
      ],
      "min": [
        0.2078431397676468,
        0.1568627506494522,
        0.11372549086809158,
        1.0
      ],
      "type": "VEC4"
    },
    {
      "bufferView": 0,
      "byteOffset": 25715820,
      "componentType": 5125,
      "count": 310461,
      "type": "SCALAR"
    },
    {
      "bufferView": 1,
      "byteOffset": 33028128,
      "componentType": 5126,
      "count": 65532,
      "max": [
        62.601837158203125,
        162.4558868408203,
        -462.0213317871094
      ],
      "min": [
        -77.5999984741211,
        -100.14164733886719,
        -678.313720703125
      ],
      "type": "VEC3"
    },
    {
      "bufferView": 1,
      "byteOffset": 33814512,
      "componentType": 5126,
      "count": 65532,
      "max": [
        0.9999996423721313,
        0.9982468485832214,
        0.9997376799583435
      ],
      "min": [
        -0.9948534369468689,
        -1.0,
        -0.9996234178543091
      ],
      "type": "VEC3"
    },
    {
      "bufferView": 2,
      "byteOffset": 22018752,
      "componentType": 5126,
      "count": 65532,
      "max": [
        1.0,
        1.0,
        0.9215686321258545,
        1.0
      ],
      "min": [
        0.1725490242242813,
        0.125490203499794,
        0.12156862765550613,
        1.0
      ],
      "type": "VEC4"
    },
    {
      "bufferView": 0,
      "byteOffset": 26957664,
      "componentType": 5125,
      "count": 295215,
      "type": "SCALAR"
    },
    {
      "bufferView": 1,
      "byteOffset": 34600896,
      "componentType": 5126,
      "count": 65532,
      "max": [
        62.320499420166016,
        157.9199981689453,
        -455.5199890136719
      ],
      "min": [
        -76.95999908447266,
        -97.47132110595703,
        -677.9966430664063
      ],
      "type": "VEC3"
    },
    {
      "bufferView": 1,
      "byteOffset": 35387280,
      "componentType": 5126,
      "count": 65532,
      "max": [
        0.999901533126831,
        0.9693542718887329,
        0.9991745352745056
      ],
      "min": [
        -0.9992750883102417,
        -0.9999536275863647,
        -0.9964874386787415
      ],
      "type": "VEC3"
    },
    {
      "bufferView": 2,
      "byteOffset": 23067264,
      "componentType": 5126,
      "count": 65532,
      "max": [
        1.0,
        0.7803921699523926,
        0.7176470756530762,
        1.0
      ],
      "min": [
        0.1568627506494522,
        0.062745101749897,
        0.05882352963089943,
        1.0
      ],
      "type": "VEC4"
    },
    {
      "bufferView": 0,
      "byteOffset": 28138524,
      "componentType": 5125,
      "count": 303687,
      "type": "SCALAR"
    },
    {
      "bufferView": 1,
      "byteOffset": 36173664,
      "componentType": 5126,
      "count": 65532,
      "max": [
        61.95645523071289,
        162.78701782226563,
        -450.6222229003906
      ],
      "min": [
        -77.12398529052734,
        -99.3396987915039,
        -679.2544555664063
      ],
      "type": "VEC3"
    },
    {
      "bufferView": 1,
      "byteOffset": 36960048,
      "componentType": 5126,
      "count": 65532,
      "max": [
        1.0,
        0.9993252158164978,
        0.9998793005943298
      ],
      "min": [
        -0.9995604753494263,
        -1.0,
        -1.0
      ],
      "type": "VEC3"
    },
    {
      "bufferView": 2,
      "byteOffset": 24115776,
      "componentType": 5126,
      "count": 65532,
      "max": [
        1.0,
        1.0,
        0.9647058844566345,
        1.0
      ],
      "min": [
        0.10588235408067703,
        0.05882352963089943,
        0.08235294371843338,
        1.0
      ],
      "type": "VEC4"
    },
    {
      "bufferView": 0,
      "byteOffset": 29353272,
      "componentType": 5125,
      "count": 271938,
      "type": "SCALAR"
    },
    {
      "bufferView": 1,
      "byteOffset": 37746432,
      "componentType": 5126,
      "count": 65534,
      "max": [
        62.23683547973633,
        160.5255889892578,
        -450.4938049316406
      ],
      "min": [
        -78.23999786376953,
        -102.47624206542969,
        -679.6094360351563
      ],
      "type": "VEC3"
    },
    {
      "bufferView": 1,
      "byteOffset": 38532840,
      "componentType": 5126,
      "count": 65534,
      "max": [
        0.9999871850013733,
        0.9856721758842468,
        0.9992721676826477
      ],
      "min": [
        -0.9987604022026062,
        -0.9999930262565613,
        -0.9992119669914246
      ],
      "type": "VEC3"
    },
    {
      "bufferView": 2,
      "byteOffset": 25164288,
      "componentType": 5126,
      "count": 65534,
      "max": [
        1.0,
        1.0,
        0.9529411792755127,
        1.0
      ],
      "min": [
        0.14509804546833038,
        0.10588235408067703,
        0.12156862765550613,
        1.0
      ],
      "type": "VEC4"
    },
    {
      "bufferView": 0,
      "byteOffset": 30441024,
      "componentType": 5125,
      "count": 232434,
      "type": "SCALAR"
    },
    {
      "bufferView": 1,
      "byteOffset": 39319248,
      "componentType": 5126,
      "count": 65532,
      "max": [
        63.35232925415039,
        161.77923583984375,
        -450.630615234375
      ],
      "min": [
        -78.23999786376953,
        -102.1849594116211,
        -679.2000122070313
      ],
      "type": "VEC3"
    },
    {
      "bufferView": 1,
      "byteOffset": 40105632,
      "componentType": 5126,
      "count": 65532,
      "max": [
        0.9999781250953674,
        0.9977538585662842,
        0.9999735951423645
      ],
      "min": [
        -0.9998540878295898,
        -1.0,
        -0.9998898506164551
      ],
      "type": "VEC3"
    },
    {
      "bufferView": 2,
      "byteOffset": 26212832,
      "componentType": 5126,
      "count": 65532,
      "max": [
        1.0,
        1.0,
        0.9098039269447327,
        1.0
      ],
      "min": [
        0.13725490868091583,
        0.09803921729326248,
        0.10196078568696976,
        1.0
      ],
      "type": "VEC4"
    },
    {
      "bufferView": 0,
      "byteOffset": 31370760,
      "componentType": 5125,
      "count": 194253,
      "type": "SCALAR"
    },
    {
      "bufferView": 1,
      "byteOffset": 40892016,
      "componentType": 5126,
      "count": 65532,
      "max": [
        63.295528411865234,
        162.7458953857422,
        -450.69720458984375
      ],
      "min": [
        -78.55999755859375,
        -102.4598617553711,
        -679.4736938476563
      ],
      "type": "VEC3"
    },
    {
      "bufferView": 1,
      "byteOffset": 41678400,
      "componentType": 5126,
      "count": 65532,
      "max": [
        1.0,
        0.9989185929298401,
        0.9972079992294312
      ],
      "min": [
        -0.9999247789382935,
        -1.0,
        -1.0
      ],
      "type": "VEC3"
    },
    {
      "bufferView": 2,
      "byteOffset": 27261344,
      "componentType": 5126,
      "count": 65532,
      "max": [
        1.0,
        1.0,
        0.9647058844566345,
        1.0
      ],
      "min": [
        0.125490203499794,
        0.03529411926865578,
        0.0117647061124444,
        1.0
      ],
      "type": "VEC4"
    },
    {
      "bufferView": 0,
      "byteOffset": 32147772,
      "componentType": 5125,
      "count": 183297,
      "type": "SCALAR"
    },
    {
      "bufferView": 1,
      "byteOffset": 42464784,
      "componentType": 5126,
      "count": 65532,
      "max": [
        62.891632080078125,
        162.8109588623047,
        -450.625
      ],
      "min": [
        -78.55999755859375,
        -92.31999969482422,
        -680.1106567382813
      ],
      "type": "VEC3"
    },
    {
      "bufferView": 1,
      "byteOffset": 43251168,
      "componentType": 5126,
      "count": 65532,
      "max": [
        0.9999677538871765,
        0.9990145564079285,
        0.9997729063034058
      ],
      "min": [
        -0.9998581409454346,
        -0.9960983991622925,
        -0.9999039769172668
      ],
      "type": "VEC3"
    },
    {
      "bufferView": 2,
      "byteOffset": 28309856,
      "componentType": 5126,
      "count": 65532,
      "max": [
        1.0,
        1.0,
        0.9647058844566345,
        1.0
      ],
      "min": [
        0.0784313753247261,
        0.0,
        0.0117647061124444,
        1.0
      ],
      "type": "VEC4"
    },
    {
      "bufferView": 0,
      "byteOffset": 32880960,
      "componentType": 5125,
      "count": 156675,
      "type": "SCALAR"
    },
    {
      "bufferView": 1,
      "byteOffset": 44037552,
      "componentType": 5126,
      "count": 1378,
      "max": [
        41.02325439453125,
        147.95504760742188,
        -478.9964904785156
      ],
      "min": [
        -45.837833404541016,
        31.924272537231445,
        -624.47998046875
      ],
      "type": "VEC3"
    },
    {
      "bufferView": 1,
      "byteOffset": 44054088,
      "componentType": 5126,
      "count": 1378,
      "max": [
        0.9416012167930603,
        0.9670748114585876,
        0.7258418202400208
      ],
      "min": [
        -0.7912929058074951,
        -0.6582190990447998,
        -0.8849596977233887
      ],
      "type": "VEC3"
    },
    {
      "bufferView": 2,
      "byteOffset": 29358368,
      "componentType": 5126,
      "count": 1378,
      "max": [
        0.7058823704719543,
        0.43529412150382996,
        0.3960784375667572,
        1.0
      ],
      "min": [
        0.40392157435417175,
        0.239215686917305,
        0.2235294133424759,
        1.0
      ],
      "type": "VEC4"
    },
    {
      "bufferView": 0,
      "byteOffset": 33507660,
      "componentType": 5125,
      "count": 2553,
      "type": "SCALAR"
    }
  ],
  "asset": {
    "extras": {
      "author": "Thunk3D scanner (https://sketchfab.com/Diana123456)",
      "license": "CC-BY-4.0 (http://creativecommons.org/licenses/by/4.0/)",
      "source": "https://sketchfab.com/3d-models/hat-6c0714a1d0a54b4a858b3fd5e971d155",
      "title": "Hat"
    },
    "generator": "Sketchfab-14.20.0",
    "version": "2.0"
  },
  "bufferViews": [
    {
      "buffer": 0,
      "byteLength": 33517872,
      "name": "floatBufferViews",
      "target": 34963
    },
    {
      "buffer": 0,
      "byteLength": 44070624,
      "byteOffset": 33517872,
      "byteStride": 12,
      "name": "floatBufferViews",
      "target": 34962
    },
    {
      "buffer": 0,
      "byteLength": 29380416,
      "byteOffset": 77588496,
      "byteStride": 16,
      "name": "floatBufferViews",
      "target": 34962
    }
  ],
  "buffers": [
    {
      "byteLength": 106968912,
      "uri": "scene.bin"
    }
  ],
  "materials": [
    {
      "doubleSided": true,
      "name": "Scene_-_Root",
      "pbrMetallicRoughness": {
        "metallicFactor": 0.4164845760318809,
        "roughnessFactor": 0.7080459770114943
      }
    }
  ],
  "meshes": [
    {
      "name": "Object_0",
      "primitives": [
        {
          "attributes": {
            "COLOR_0": 2,
            "NORMAL": 1,
            "POSITION": 0
          },
          "indices": 3,
          "material": 0,
          "mode": 4
        }
      ]
    },
    {
      "name": "Object_1",
      "primitives": [
        {
          "attributes": {
            "COLOR_0": 6,
            "NORMAL": 5,
            "POSITION": 4
          },
          "indices": 7,
          "material": 0,
          "mode": 4
        }
      ]
    },
    {
      "name": "Object_2",
      "primitives": [
        {
          "attributes": {
            "COLOR_0": 10,
            "NORMAL": 9,
            "POSITION": 8
          },
          "indices": 11,
          "material": 0,
          "mode": 4
        }
      ]
    },
    {
      "name": "Object_3",
      "primitives": [
        {
          "attributes": {
            "COLOR_0": 14,
            "NORMAL": 13,
            "POSITION": 12
          },
          "indices": 15,
          "material": 0,
          "mode": 4
        }
      ]
    },
    {
      "name": "Object_4",
      "primitives": [
        {
          "attributes": {
            "COLOR_0": 18,
            "NORMAL": 17,
            "POSITION": 16
          },
          "indices": 19,
          "material": 0,
          "mode": 4
        }
      ]
    },
    {
      "name": "Object_5",
      "primitives": [
        {
          "attributes": {
            "COLOR_0": 22,
            "NORMAL": 21,
            "POSITION": 20
          },
          "indices": 23,
          "material": 0,
          "mode": 4
        }
      ]
    },
    {
      "name": "Object_6",
      "primitives": [
        {
          "attributes": {
            "COLOR_0": 26,
            "NORMAL": 25,
            "POSITION": 24
          },
          "indices": 27,
          "material": 0,
          "mode": 4
        }
      ]
    },
    {
      "name": "Object_7",
      "primitives": [
        {
          "attributes": {
            "COLOR_0": 30,
            "NORMAL": 29,
            "POSITION": 28
          },
          "indices": 31,
          "material": 0,
          "mode": 4
        }
      ]
    },
    {
      "name": "Object_8",
      "primitives": [
        {
          "attributes": {
            "COLOR_0": 34,
            "NORMAL": 33,
            "POSITION": 32
          },
          "indices": 35,
          "material": 0,
          "mode": 4
        }
      ]
    },
    {
      "name": "Object_9",
      "primitives": [
        {
          "attributes": {
            "COLOR_0": 38,
            "NORMAL": 37,
            "POSITION": 36
          },
          "indices": 39,
          "material": 0,
          "mode": 4
        }
      ]
    },
    {
      "name": "Object_10",
      "primitives": [
        {
          "attributes": {
            "COLOR_0": 42,
            "NORMAL": 41,
            "POSITION": 40
          },
          "indices": 43,
          "material": 0,
          "mode": 4
        }
      ]
    },
    {
      "name": "Object_11",
      "primitives": [
        {
          "attributes": {
            "COLOR_0": 46,
            "NORMAL": 45,
            "POSITION": 44
          },
          "indices": 47,
          "material": 0,
          "mode": 4
        }
      ]
    },
    {
      "name": "Object_12",
      "primitives": [
        {
          "attributes": {
            "COLOR_0": 50,
            "NORMAL": 49,
            "POSITION": 48
          },
          "indices": 51,
          "material": 0,
          "mode": 4
        }
      ]
    },
    {
      "name": "Object_13",
      "primitives": [
        {
          "attributes": {
            "COLOR_0": 54,
            "NORMAL": 53,
            "POSITION": 52
          },
          "indices": 55,
          "material": 0,
          "mode": 4
        }
      ]
    },
    {
      "name": "Object_14",
      "primitives": [
        {
          "attributes": {
            "COLOR_0": 58,
            "NORMAL": 57,
            "POSITION": 56
          },
          "indices": 59,
          "material": 0,
          "mode": 4
        }
      ]
    },
    {
      "name": "Object_15",
      "primitives": [
        {
          "attributes": {
            "COLOR_0": 62,
            "NORMAL": 61,
            "POSITION": 60
          },
          "indices": 63,
          "material": 0,
          "mode": 4
        }
      ]
    },
    {
      "name": "Object_16",
      "primitives": [
        {
          "attributes": {
            "COLOR_0": 66,
            "NORMAL": 65,
            "POSITION": 64
          },
          "indices": 67,
          "material": 0,
          "mode": 4
        }
      ]
    },
    {
      "name": "Object_17",
      "primitives": [
        {
          "attributes": {
            "COLOR_0": 70,
            "NORMAL": 69,
            "POSITION": 68
          },
          "indices": 71,
          "material": 0,
          "mode": 4
        }
      ]
    },
    {
      "name": "Object_18",
      "primitives": [
        {
          "attributes": {
            "COLOR_0": 74,
            "NORMAL": 73,
            "POSITION": 72
          },
          "indices": 75,
          "material": 0,
          "mode": 4
        }
      ]
    },
    {
      "name": "Object_19",
      "primitives": [
        {
          "attributes": {
            "COLOR_0": 78,
            "NORMAL": 77,
            "POSITION": 76
          },
          "indices": 79,
          "material": 0,
          "mode": 4
        }
      ]
    },
    {
      "name": "Object_20",
      "primitives": [
        {
          "attributes": {
            "COLOR_0": 82,
            "NORMAL": 81,
            "POSITION": 80
          },
          "indices": 83,
          "material": 0,
          "mode": 4
        }
      ]
    },
    {
      "name": "Object_21",
      "primitives": [
        {
          "attributes": {
            "COLOR_0": 86,
            "NORMAL": 85,
            "POSITION": 84
          },
          "indices": 87,
          "material": 0,
          "mode": 4
        }
      ]
    },
    {
      "name": "Object_22",
      "primitives": [
        {
          "attributes": {
            "COLOR_0": 90,
            "NORMAL": 89,
            "POSITION": 88
          },
          "indices": 91,
          "material": 0,
          "mode": 4
        }
      ]
    },
    {
      "name": "Object_23",
      "primitives": [
        {
          "attributes": {
            "COLOR_0": 94,
            "NORMAL": 93,
            "POSITION": 92
          },
          "indices": 95,
          "material": 0,
          "mode": 4
        }
      ]
    },
    {
      "name": "Object_24",
      "primitives": [
        {
          "attributes": {
            "COLOR_0": 98,
            "NORMAL": 97,
            "POSITION": 96
          },
          "indices": 99,
          "material": 0,
          "mode": 4
        }
      ]
    },
    {
      "name": "Object_25",
      "primitives": [
        {
          "attributes": {
            "COLOR_0": 102,
            "NORMAL": 101,
            "POSITION": 100
          },
          "indices": 103,
          "material": 0,
          "mode": 4
        }
      ]
    },
    {
      "name": "Object_26",
      "primitives": [
        {
          "attributes": {
            "COLOR_0": 106,
            "NORMAL": 105,
            "POSITION": 104
          },
          "indices": 107,
          "material": 0,
          "mode": 4
        }
      ]
    },
    {
      "name": "Object_27",
      "primitives": [
        {
          "attributes": {
            "COLOR_0": 110,
            "NORMAL": 109,
            "POSITION": 108
          },
          "indices": 111,
          "material": 0,
          "mode": 4
        }
      ]
    },
    {
      "name": "Object_28",
      "primitives": [
        {
          "attributes": {
            "COLOR_0": 114,
            "NORMAL": 113,
            "POSITION": 112
          },
          "indices": 115,
          "material": 0,
          "mode": 4
        }
      ]
    }
  ],
  "nodes": [
    {
      "children": [
        1
      ],
      "matrix": [
        -0.09007725864648819,
        0.9825957417488098,
        0.16245515644550346,
        0.0,
        -0.7791323065757751,
        -0.1711288392543794,
        0.6030486822128296,
        0.0,
        0.6203538775444031,
        -0.07225308567285554,
        0.7809869050979614,
        0.0,
        0.0,
        0.0,
        0.0,
        1.0
      ],
      "name": "Sketchfab_model"
    },
    {
      "children": [
        2,
        3,
        4,
        5,
        6,
        7,
        8,
        9,
        10,
        11,
        12,
        13,
        14,
        15,
        16,
        17,
        18,
        19,
        20,
        21,
        22,
        23,
        24,
        25,
        26,
        27,
        28,
        29,
        30
      ],
      "name": "Geode"
    },
    {
      "mesh": 0,
      "name": "Object_2"
    },
    {
      "mesh": 1,
      "name": "Object_3"
    },
    {
      "mesh": 2,
      "name": "Object_4"
    },
    {
      "mesh": 3,
      "name": "Object_5"
    },
    {
      "mesh": 4,
      "name": "Object_6"
    },
    {
      "mesh": 5,
      "name": "Object_7"
    },
    {
      "mesh": 6,
      "name": "Object_8"
    },
    {
      "mesh": 7,
      "name": "Object_9"
    },
    {
      "mesh": 8,
      "name": "Object_10"
    },
    {
      "mesh": 9,
      "name": "Object_11"
    },
    {
      "mesh": 10,
      "name": "Object_12"
    },
    {
      "mesh": 11,
      "name": "Object_13"
    },
    {
      "mesh": 12,
      "name": "Object_14"
    },
    {
      "mesh": 13,
      "name": "Object_15"
    },
    {
      "mesh": 14,
      "name": "Object_16"
    },
    {
      "mesh": 15,
      "name": "Object_17"
    },
    {
      "mesh": 16,
      "name": "Object_18"
    },
    {
      "mesh": 17,
      "name": "Object_19"
    },
    {
      "mesh": 18,
      "name": "Object_20"
    },
    {
      "mesh": 19,
      "name": "Object_21"
    },
    {
      "mesh": 20,
      "name": "Object_22"
    },
    {
      "mesh": 21,
      "name": "Object_23"
    },
    {
      "mesh": 22,
      "name": "Object_24"
    },
    {
      "mesh": 23,
      "name": "Object_25"
    },
    {
      "mesh": 24,
      "name": "Object_26"
    },
    {
      "mesh": 25,
      "name": "Object_27"
    },
    {
      "mesh": 26,
      "name": "Object_28"
    },
    {
      "mesh": 27,
      "name": "Object_29"
    },
    {
      "mesh": 28,
      "name": "Object_30"
    }
  ],
  "scene": 0,
  "scenes": [
    {
      "name": "Sketchfab_Scene",
      "nodes": [
        0
      ]
    }
  ]
}
