{
  "accessors": [
    {
      "bufferView": 2,
      "componentType": 5126,
      "count": 1253,
      "max": [
        216.24853515625,
        231.05303955078125,
        245.82875061035156
      ],
      "min": [
        0.0,
        34.10845947265625,
        76.67181396484375
      ],
      "type": "VEC3"
    },
    {
      "bufferView": 2,
      "byteOffset": 15036,
      "componentType": 5126,
      "count": 1253,
      "max": [
        0.9984597563743591,
        0.9997642636299133,
        0.9999930262565613
      ],
      "min": [
        -0.9938920140266418,
        -0.9999874830245972,
        -0.9999868869781494
      ],
      "type": "VEC3"
    },
    {
      "bufferView": 3,
      "componentType": 5126,
      "count": 1253,
      "max": [
        0.9988667368888855,
        0.9921202063560486,
        0.9929028749465942,
        1.0
      ],
      "min": [
        -0.9998171925544739,
        -0.999898374080658,
        -0.9940007925033569,
        -1.0
      ],
      "type": "VEC4"
    },
    {
      "bufferView": 1,
      "componentType": 5126,
      "count": 1253,
      "max": [
        0.9980000257492065,
        0.8830540180206299
      ],
      "min": [
        0.0020000000949949026,
        0.0020000000949949026
      ],
      "type": "VEC2"
    },
    {
      "bufferView": 0,
      "componentType": 5125,
      "count": 6279,
      "type": "SCALAR"
    },
    {
      "bufferView": 2,
      "byteOffset": 30072,
      "componentType": 5126,
      "count": 717,
      "max": [
        212.4396514892578,
        206.099853515625,
        237.14527893066406
      ],
      "min": [
        92.44123840332031,
        12.80743408203125,
        171.843994140625
      ],
      "type": "VEC3"
    },
    {
      "bufferView": 2,
      "byteOffset": 38676,
      "componentType": 5126,
      "count": 717,
      "max": [
        0.9995247721672058,
        0.9760594964027405,
        0.9997353553771973
      ],
      "min": [
        -0.9992161393165588,
        -0.9870039820671082,
        -0.9998646378517151
      ],
      "type": "VEC3"
    },
    {
      "bufferView": 3,
      "byteOffset": 20048,
      "componentType": 5126,
      "count": 717,
      "max": [
        0.9994612336158752,
        0.9985399842262268,
        0.9994258880615234,
        1.0
      ],
      "min": [
        -0.9899007081985474,
        -0.992770791053772,
        -0.9966444969177246,
        -1.0
      ],
      "type": "VEC4"
    },
    {
      "bufferView": 1,
      "byteOffset": 10024,
      "componentType": 5126,
      "count": 717,
      "max": [
        0.8243319988250732,
        0.9980000257492065
      ],
      "min": [
        0.0020000000949949026,
        0.0020000000949949026
      ],
      "type": "VEC2"
    },
    {
      "bufferView": 0,
      "byteOffset": 25116,
      "componentType": 5125,
      "count": 3474,
      "type": "SCALAR"
    },
    {
      "bufferView": 2,
      "byteOffset": 47280,
      "componentType": 5126,
      "count": 227,
      "max": [
        217.2569580078125,
        196.99111938476563,
        231.05178833007813
      ],
      "min": [
        35.05290985107422,
        17.555130004882813,
        0.0
      ],
      "type": "VEC3"
    },
    {
      "bufferView": 2,
      "byteOffset": 50004,
      "componentType": 5126,
      "count": 227,
      "max": [
        1.0,
        0.9848077893257141,
        1.0
      ],
      "min": [
        -1.0,
        -0.9848077893257141,
        -1.0
      ],
      "type": "VEC3"
    },
    {
      "bufferView": 3,
      "byteOffset": 31520,
      "componentType": 5126,
      "count": 227,
      "max": [
        0.9995290040969849,
        1.0,
        0.5516005158424377,
        1.0
      ],
      "min": [
        -0.993445873260498,
        -1.0,
        -0.551600456237793,
        1.0
      ],
      "type": "VEC4"
    },
    {
      "bufferView": 1,
      "byteOffset": 15760,
      "componentType": 5126,
      "count": 227,
      "max": [
        0.9980000257492065,
        0.5734140276908875
      ],
      "min": [
        0.0020000000949949026,
        0.0020000000949949026
      ],
      "type": "VEC2"
    },
    {
      "bufferView": 0,
      "byteOffset": 39012,
      "componentType": 5125,
      "count": 864,
      "type": "SCALAR"
    },
    {
      "bufferView": 2,
      "byteOffset": 52728,
      "componentType": 5126,
      "count": 1460,
      "max": [
        199.42198181152344,
        149.16943359375,
        241.2375030517578
      ],
      "min": [
        14.537261962890625,
        0.0,
        108.61115264892578
      ],
      "type": "VEC3"
    },
    {
      "bufferView": 2,
      "byteOffset": 70248,
      "componentType": 5126,
      "count": 1460,
      "max": [
        0.9995296597480774,
        0.9996848702430725,
        0.9996774792671204
      ],
      "min": [
        -0.9990482330322266,
        -0.9997133612632751,
        -0.9977656602859497
      ],
      "type": "VEC3"
    },
    {
      "bufferView": 3,
      "byteOffset": 35152,
      "componentType": 5126,
      "count": 1460,
      "max": [
        0.9976565837860107,
        0.9991484880447388,
        0.9998677372932434,
        1.0
      ],
      "min": [
        -0.9984820485115051,
        -0.9997066259384155,
        -0.9977987408638,
        -1.0
      ],
      "type": "VEC4"
    },
    {
      "bufferView": 1,
      "byteOffset": 17576,
      "componentType": 5126,
      "count": 1460,
      "max": [
        0.9818099737167358,
        0.9980000257492065
      ],
      "min": [
        0.0020000000949949026,
        0.0020000000949949026
      ],
      "type": "VEC2"
    },
    {
      "bufferView": 0,
      "byteOffset": 42468,
      "componentType": 5125,
      "count": 6666,
      "type": "SCALAR"
    }
  ],
  "asset": {
    "extras": {
      "author": "chanmagomed (https://sketchfab.com/chanmagomed)",
      "license": "CC-BY-4.0 (http://creativecommons.org/licenses/by/4.0/)",
      "source": "https://sketchfab.com/3d-models/laundry-basket-2049ca95ca424b66a8e1948660c68b7e",
      "title": "laundry basket"
    },
    "generator": "Sketchfab-12.68.0",
    "version": "2.0"
  },
  "bufferViews": [
    {
      "buffer": 0,
      "byteLength": 69132,
      "name": "floatBufferViews",
      "target": 34963
    },
    {
      "buffer": 0,
      "byteLength": 29256,
      "byteOffset": 69132,
      "byteStride": 8,
      "name": "floatBufferViews",
      "target": 34962
    },
    {
      "buffer": 0,
      "byteLength": 87768,
      "byteOffset": 98388,
      "byteStride": 12,
      "name": "floatBufferViews",
      "target": 34962
    },
    {
      "buffer": 0,
      "byteLength": 58512,
      "byteOffset": 186156,
      "byteStride": 16,
      "name": "floatBufferViews",
      "target": 34962
    }
  ],
  "buffers": [
    {
      "byteLength": 244668,
      "uri": "scene.bin"
    }
  ],
  "images": [
    {
      "uri": "textures/07___Default_baseColor.png"
    },
    {
      "uri": "textures/07___Default_metallicRoughness.png"
    },
    {
      "uri": "textures/07___Default_normal.png"
    },
    {
      "uri": "textures/Material__198_baseColor.png"
    },
    {
      "uri": "textures/Material__198_metallicRoughness.png"
    },
    {
      "uri": "textures/Material__198_normal.png"
    },
    {
      "uri": "textures/Material__246_baseColor.png"
    },
    {
      "uri": "textures/Material__246_metallicRoughness.png"
    },
    {
      "uri": "textures/Material__246_normal.png"
    },
    {
      "uri": "textures/wire_108008136_baseColor.png"
    },
    {
      "uri": "textures/wire_108008136_metallicRoughness.png"
    },
    {
      "uri": "textures/wire_108008136_normal.png"
    }
  ],
  "materials": [
    {
      "doubleSided": true,
      "name": "07___Default",
      "normalTexture": {
        "index": 2
      },
      "occlusionTexture": {
        "index": 1,
        "strength": 0.64
      },
      "pbrMetallicRoughness": {
        "baseColorTexture": {
          "index": 0
        },
        "metallicFactor": 0.59,
        "metallicRoughnessTexture": {
          "index": 1
        },
        "roughnessFactor": 0.4
      }
    },
    {
      "doubleSided": true,
      "name": "Material__198",
      "normalTexture": {
        "index": 5
      },
      "occlusionTexture": {
        "index": 4
      },
      "pbrMetallicRoughness": {
        "baseColorTexture": {
          "index": 3
        },
        "metallicFactor": 0.0,
        "metallicRoughnessTexture": {
          "index": 4
        }
      }
    },
    {
      "alphaMode": "BLEND",
      "doubleSided": true,
      "name": "Material__246",
      "normalTexture": {
        "index": 8
      },
      "occlusionTexture": {
        "index": 7
      },
      "pbrMetallicRoughness": {
        "baseColorTexture": {
          "index": 6
        },
        "metallicFactor": 0.0,
        "metallicRoughnessTexture": {
          "index": 7
        }
      }
    },
    {
      "doubleSided": true,
      "name": "wire_108008136",
      "normalTexture": {
        "index": 11
      },
      "occlusionTexture": {
        "index": 10
      },
      "pbrMetallicRoughness": {
        "baseColorTexture": {
          "index": 9
        },
        "metallicFactor": 0.0,
        "metallicRoughnessTexture": {
          "index": 10
        }
      }
    }
  ],
  "meshes": [
    {
      "name": "Object_0",
      "primitives": [
        {
          "attributes": {
            "NORMAL": 1,
            "POSITION": 0,
            "TANGENT": 2,
            "TEXCOORD_0": 3
          },
          "indices": 4,
          "material": 2,
          "mode": 4
        }
      ]
    },
    {
      "name": "Object_1",
      "primitives": [
        {
          "attributes": {
            "NORMAL": 6,
            "POSITION": 5,
            "TANGENT": 7,
            "TEXCOORD_0": 8
          },
          "indices": 9,
          "material": 3,
          "mode": 4
        }
      ]
    },
    {
      "name": "Object_2",
      "primitives": [
        {
          "attributes": {
            "NORMAL": 11,
            "POSITION": 10,
            "TANGENT": 12,
            "TEXCOORD_0": 13
          },
          "indices": 14,
          "material": 0,
          "mode": 4
        }
      ]
    },
    {
      "name": "Object_3",
      "primitives": [
        {
          "attributes": {
            "NORMAL": 16,
            "POSITION": 15,
            "TANGENT": 17,
            "TEXCOORD_0": 18
          },
          "indices": 19,
          "material": 1,
          "mode": 4
        }
      ]
    }
  ],
  "nodes": [
    {
      "children": [
        1
      ],
      "matrix": [
        1.0,
        0.0,
        0.0,
        0.0,
        0.0,
        2.220446049250313e-16,
        -1.0,
        0.0,
        0.0,
        1.0,
        2.220446049250313e-16,
        0.0,
        0.0,
        0.0,
        0.0,
        1.0
      ],
      "name": "Sketchfab_model"
    },
    {
      "children": [
        2
      ],
      "matrix": [
        1.0,
        0.0,
        0.0,
        0.0,
        0.0,
        1.0,
        0.0,
        0.0,
        0.0,
        0.0,
        1.0,
        0.0,
        -108.62857055664063,
        -115.52655029296875,
        -122.91436767578125,
        1.0
      ],
      "name": "export.obj.cleaner.gles"
    },
    {
      "children": [
        3,
        4,
        5,
        6
      ],
      "name": "Object_2"
    },
    {
      "mesh": 0,
      "name": "Object_3"
    },
    {
      "mesh": 1,
      "name": "Object_4"
    },
    {
      "mesh": 2,
      "name": "Object_5"
    },
    {
      "mesh": 3,
      "name": "Object_6"
    }
  ],
  "samplers": [
    {
      "magFilter": 9729,
      "minFilter": 9987,
      "wrapS": 10497,
      "wrapT": 10497
    }
  ],
  "scene": 0,
  "scenes": [
    {
      "name": "Sketchfab_Scene",
      "nodes": [
        0
      ]
    }
  ],
  "textures": [
    {
      "sampler": 0,
      "source": 0
    },
    {
      "sampler": 0,
      "source": 1
    },
    {
      "sampler": 0,
      "source": 2
    },
    {
      "sampler": 0,
      "source": 3
    },
    {
      "sampler": 0,
      "source": 4
    },
    {
      "sampler": 0,
      "source": 5
    },
    {
      "sampler": 0,
      "source": 6
    },
    {
      "sampler": 0,
      "source": 7
    },
    {
      "sampler": 0,
      "source": 8
    },
    {
      "sampler": 0,
      "source": 9
    },
    {
      "sampler": 0,
      "source": 10
    },
    {
      "sampler": 0,
      "source": 11
    }
  ]
}
