{
  "accessors": [
    {
      "bufferView": 2,
      "componentType": 5126,
      "count": 3331,
      "max": [
        19.401031494140625,
        14.123443603515625,
        44.43199920654297
      ],
      "min": [
        -19.909454345703125,
        -14.258399963378906,
        -1.4840526580810547
      ],
      "type": "VEC3"
    },
    {
      "bufferView": 2,
      "byteOffset": 39972,
      "componentType": 5126,
      "count": 3331,
      "max": [
        1.0,
        1.0,
        1.0
      ],
      "min": [
        -1.0,
        -1.0,
        -1.0
      ],
      "type": "VEC3"
    },
    {
      "bufferView": 3,
      "componentType": 5126,
      "count": 3331,
      "max": [
        1.0,
        1.0,
        1.0,
        1.0
      ],
      "min": [
        -1.0,
        -1.0,
        -0.9093871712684631,
        -1.0
      ],
      "type": "VEC4"
    },
    {
      "bufferView": 1,
      "componentType": 5126,
      "count": 3331,
      "max": [
        0.9951193928718567,
        0.9930195212364197
      ],
      "min": [
        0.006773873697966337,
        0.01520608551800251
      ],
      "type": "VEC2"
    },
    {
      "bufferView": 0,
      "componentType": 5125,
      "count": 7818,
      "type": "SCALAR"
    },
    {
      "bufferView": 2,
      "byteOffset": 79944,
      "componentType": 5126,
      "count": 990,
      "max": [
        19.271730422973633,
        4.488500595092773,
        6.856401443481445
      ],
      "min": [
        -19.271730422973633,
        -4.488503932952881,
        -92.70610809326172
      ],
      "type": "VEC3"
    },
    {
      "bufferView": 2,
      "byteOffset": 91824,
      "componentType": 5126,
      "count": 990,
      "max": [
        1.0,
        1.0,
        1.0
      ],
      "min": [
        -1.0,
        -1.0,
        -1.0
      ],
      "type": "VEC3"
    },
    {
      "bufferView": 3,
      "byteOffset": 53296,
      "componentType": 5126,
      "count": 990,
      "max": [
        1.0,
        1.0,
        1.0,
        1.0
      ],
      "min": [
        -1.0,
        -0.997444748878479,
        -1.0,
        1.0
      ],
      "type": "VEC4"
    },
    {
      "bufferView": 1,
      "byteOffset": 26648,
      "componentType": 5126,
      "count": 990,
      "max": [
        0.9584609270095825,
        0.9810498356819153
      ],
      "min": [
        0.00906825065612793,
        0.013525694608688354
      ],
      "type": "VEC2"
    },
    {
      "bufferView": 0,
      "byteOffset": 31272,
      "componentType": 5125,
      "count": 1836,
      "type": "SCALAR"
    },
    {
      "bufferView": 2,
      "byteOffset": 103704,
      "componentType": 5126,
      "count": 1187,
      "max": [
        26.2664737701416,
        9.394272804260254,
        0.14130783081054688
      ],
      "min": [
        -21.212181091308594,
        -13.979347229003906,
        -15.35055923461914
      ],
      "type": "VEC3"
    },
    {
      "bufferView": 2,
      "byteOffset": 117948,
      "componentType": 5126,
      "count": 1187,
      "max": [
        0.9998092651367188,
        0.2968682050704956,
        1.0
      ],
      "min": [
        -0.6778615117073059,
        -0.508832573890686,
        -0.9997161626815796
      ],
      "type": "VEC3"
    },
    {
      "bufferView": 3,
      "byteOffset": 69136,
      "componentType": 5126,
      "count": 1187,
      "max": [
        0.49656447768211365,
        0.9854353666305542,
        0.36747658252716064,
        1.0
      ],
      "min": [
        -0.1020347848534584,
        0.8374608755111694,
        -0.33786675333976746,
        1.0
      ],
      "type": "VEC4"
    },
    {
      "bufferView": 1,
      "byteOffset": 34568,
      "componentType": 5126,
      "count": 1187,
      "max": [
        0.7331278324127197,
        0.9823397994041443
      ],
      "min": [
        0.1951419711112976,
        0.02288021519780159
      ],
      "type": "VEC2"
    },
    {
      "bufferView": 0,
      "byteOffset": 38616,
      "componentType": 5125,
      "count": 6588,
      "type": "SCALAR"
    },
    {
      "bufferView": 2,
      "byteOffset": 132192,
      "componentType": 5126,
      "count": 5559,
      "max": [
        8.025955200195313,
        -3.0223348140716553,
        0.22875680029392242
      ],
      "min": [
        0.510083794593811,
        -9.95723819732666,
        -0.08627671748399734
      ],
      "type": "VEC3"
    },
    {
      "bufferView": 2,
      "byteOffset": 198900,
      "componentType": 5126,
      "count": 5559,
      "max": [
        1.0,
        1.0,
        1.0
      ],
      "min": [
        -1.0,
        -1.0,
        -1.0
      ],
      "type": "VEC3"
    },
    {
      "bufferView": 3,
      "byteOffset": 88128,
      "componentType": 5126,
      "count": 5559,
      "max": [
        1.0,
        0.9999998807907104,
        1.0,
        1.0
      ],
      "min": [
        -1.0,
        -0.9879112839698792,
        -1.0,
        -1.0
      ],
      "type": "VEC4"
    },
    {
      "bufferView": 1,
      "byteOffset": 44064,
      "componentType": 5126,
      "count": 5559,
      "max": [
        0.995703399181366,
        0.9897966384887695
      ],
      "min": [
        0.012348253279924393,
        0.005602404475212097
      ],
      "type": "VEC2"
    },
    {
      "bufferView": 0,
      "byteOffset": 64968,
      "componentType": 5125,
      "count": 11946,
      "type": "SCALAR"
    },
    {
      "bufferView": 2,
      "byteOffset": 265608,
      "componentType": 5126,
      "count": 990,
      "max": [
        19.271730422973633,
        4.488500595092773,
        6.856401443481445
      ],
      "min": [
        -19.271730422973633,
        -4.488503932952881,
        -92.70610809326172
      ],
      "type": "VEC3"
    },
    {
      "bufferView": 2,
      "byteOffset": 277488,
      "componentType": 5126,
      "count": 990,
      "max": [
        1.0,
        1.0,
        1.0
      ],
      "min": [
        -1.0,
        -1.0,
        -1.0
      ],
      "type": "VEC3"
    },
    {
      "bufferView": 3,
      "byteOffset": 177072,
      "componentType": 5126,
      "count": 990,
      "max": [
        1.0,
        1.0,
        1.0,
        1.0
      ],
      "min": [
        -1.0,
        -0.997444748878479,
        -1.0,
        1.0
      ],
      "type": "VEC4"
    },
    {
      "bufferView": 1,
      "byteOffset": 88536,
      "componentType": 5126,
      "count": 990,
      "max": [
        0.9584609270095825,
        0.9810498356819153
      ],
      "min": [
        0.00906825065612793,
        0.013525694608688354
      ],
      "type": "VEC2"
    },
    {
      "bufferView": 0,
      "byteOffset": 112752,
      "componentType": 5125,
      "count": 1836,
      "type": "SCALAR"
    },
    {
      "bufferView": 2,
      "byteOffset": 289368,
      "componentType": 5126,
      "count": 990,
      "max": [
        19.271730422973633,
        4.488500595092773,
        6.856401443481445
      ],
      "min": [
        -19.271730422973633,
        -4.488503932952881,
        -92.70610809326172
      ],
      "type": "VEC3"
    },
    {
      "bufferView": 2,
      "byteOffset": 301248,
      "componentType": 5126,
      "count": 990,
      "max": [
        1.0,
        1.0,
        1.0
      ],
      "min": [
        -1.0,
        -1.0,
        -1.0
      ],
      "type": "VEC3"
    },
    {
      "bufferView": 3,
      "byteOffset": 192912,
      "componentType": 5126,
      "count": 990,
      "max": [
        1.0,
        1.0,
        1.0,
        1.0
      ],
      "min": [
        -1.0,
        -0.997444748878479,
        -1.0,
        1.0
      ],
      "type": "VEC4"
    },
    {
      "bufferView": 1,
      "byteOffset": 96456,
      "componentType": 5126,
      "count": 990,
      "max": [
        0.9584609270095825,
        0.9810498356819153
      ],
      "min": [
        0.00906825065612793,
        0.013525694608688354
      ],
      "type": "VEC2"
    },
    {
      "bufferView": 0,
      "byteOffset": 120096,
      "componentType": 5125,
      "count": 1836,
      "type": "SCALAR"
    }
  ],
  "asset": {
    "extras": {
      "author": "justincrazyeyes (https://sketchfab.com/justincrazyeyes)",
      "license": "CC-BY-4.0 (http://creativecommons.org/licenses/by/4.0/)",
      "source": "https://sketchfab.com/3d-models/old-dresser-with-mirror-ccf38598539f4bde9864c84c13255901",
      "title": "Old Dresser with Mirror"
    },
    "generator": "Sketchfab-12.67.0",
    "version": "2.0"
  },
  "bufferViews": [
    {
      "buffer": 0,
      "byteLength": 127440,
      "name": "floatBufferViews",
      "target": 34963
    },
    {
      "buffer": 0,
      "byteLength": 104376,
      "byteOffset": 127440,
      "byteStride": 8,
      "name": "floatBufferViews",
      "target": 34962
    },
    {
      "buffer": 0,
      "byteLength": 313128,
      "byteOffset": 231816,
      "byteStride": 12,
      "name": "floatBufferViews",
      "target": 34962
    },
    {
      "buffer": 0,
      "byteLength": 208752,
      "byteOffset": 544944,
      "byteStride": 16,
      "name": "floatBufferViews",
      "target": 34962
    }
  ],
  "buffers": [
    {
      "byteLength": 753696,
      "uri": "scene.bin"
    }
  ],
  "images": [
    {
      "uri": "textures/Material_62_baseColor.jpeg"
    },
    {
      "uri": "textures/Material_62_metallicRoughness.png"
    },
    {
      "uri": "textures/Material_62_normal.png"
    },
    {
      "uri": "textures/Material_64_baseColor.jpeg"
    },
    {
      "uri": "textures/Material_64_metallicRoughness.png"
    },
    {
      "uri": "textures/Material_64_normal.png"
    },
    {
      "uri": "textures/Material_66_baseColor.jpeg"
    },
    {
      "uri": "textures/Material_66_metallicRoughness.png"
    },
    {
      "uri": "textures/Material_66_normal.png"
    },
    {
      "uri": "textures/Material_65_baseColor.jpeg"
    },
    {
      "uri": "textures/Material_65_metallicRoughness.png"
    },
    {
      "uri": "textures/Material_65_normal.png"
    }
  ],
  "materials": [
    {
      "doubleSided": true,
      "name": "Material_62",
      "normalTexture": {
        "index": 2
      },
      "pbrMetallicRoughness": {
        "baseColorTexture": {
          "index": 0
        },
        "metallicFactor": 0.0,
        "metallicRoughnessTexture": {
          "index": 1
        }
      }
    },
    {
      "doubleSided": true,
      "name": "Material_64",
      "normalTexture": {
        "index": 5
      },
      "pbrMetallicRoughness": {
        "baseColorTexture": {
          "index": 3
        },
        "metallicFactor": 0.0,
        "metallicRoughnessTexture": {
          "index": 4
        }
      }
    },
    {
      "doubleSided": true,
      "name": "Material_66",
      "normalTexture": {
        "index": 8
      },
      "pbrMetallicRoughness": {
        "baseColorTexture": {
          "index": 6
        },
        "metallicFactor": 0.0,
        "metallicRoughnessTexture": {
          "index": 7
        },
        "roughnessFactor": 0.6644489235053415
      }
    },
    {
      "doubleSided": true,
      "name": "Material_65",
      "normalTexture": {
        "index": 11
      },
      "pbrMetallicRoughness": {
        "baseColorTexture": {
          "index": 9
        },
        "metallicFactor": 0.0,
        "metallicRoughnessTexture": {
          "index": 10
        }
      }
    }
  ],
  "meshes": [
    {
      "name": "Dresser_Material #62_0",
      "primitives": [
        {
          "attributes": {
            "NORMAL": 1,
            "POSITION": 0,
            "TANGENT": 2,
            "TEXCOORD_0": 3
          },
          "indices": 4,
          "material": 0,
          "mode": 4
        }
      ]
    },
    {
      "name": "DresserDrawer_Material #64_0",
      "primitives": [
        {
          "attributes": {
            "NORMAL": 6,
            "POSITION": 5,
            "TANGENT": 7,
            "TEXCOORD_0": 8
          },
          "indices": 9,
          "material": 1,
          "mode": 4
        }
      ]
    },
    {
      "name": "DresserCloth_Material #66_0",
      "primitives": [
        {
          "attributes": {
            "NORMAL": 11,
            "POSITION": 10,
            "TANGENT": 12,
            "TEXCOORD_0": 13
          },
          "indices": 14,
          "material": 2,
          "mode": 4
        }
      ]
    },
    {
      "name": "DresserMirror_Material #65_0",
      "primitives": [
        {
          "attributes": {
            "NORMAL": 16,
            "POSITION": 15,
            "TANGENT": 17,
            "TEXCOORD_0": 18
          },
          "indices": 19,
          "material": 3,
          "mode": 4
        }
      ]
    },
    {
      "name": "DresserDrawer001_Material #64_0",
      "primitives": [
        {
          "attributes": {
            "NORMAL": 21,
            "POSITION": 20,
            "TANGENT": 22,
            "TEXCOORD_0": 23
          },
          "indices": 24,
          "material": 1,
          "mode": 4
        }
      ]
    },
    {
      "name": "DresserDrawer002_Material #64_0",
      "primitives": [
        {
          "attributes": {
            "NORMAL": 26,
            "POSITION": 25,
            "TANGENT": 27,
            "TEXCOORD_0": 28
          },
          "indices": 29,
          "material": 1,
          "mode": 4
        }
      ]
    }
  ],
  "nodes": [
    {
      "children": [
        1
      ],
      "matrix": [
        1.0,
        0.0,
        0.0,
        0.0,
        0.0,
        2.220446049250313e-16,
        -1.0,
        0.0,
        0.0,
        1.0,
        2.220446049250313e-16,
        0.0,
        0.0,
        0.0,
        0.0,
        1.0
      ],
      "name": "Sketchfab_model"
    },
    {
      "children": [
        2
      ],
      "matrix": [
        1.0,
        0.0,
        0.0,
        0.0,
        0.0,
        0.0,
        1.0,
        0.0,
        0.0,
        -1.0,
        0.0,
        0.0,
        0.0,
        0.0,
        0.0,
        1.0
      ],
      "name": "OldDresser.FBX"
    },
    {
      "children": [
        3,
        5,
        7,
        9,
        12,
        14
      ],
      "name": "RootNode"
    },
    {
      "children": [
        4
      ],
      "matrix": [
        -1.1882311105728014,
        1.4551636469678544e-16,
        -1.7941790974761691e-07,
        0.0,
        -1.5099580220646156e-07,
        -4.440892098500626e-16,
        0.9999999999999887,
        0.0,
        1.2246464555384738e-16,
        1.0,
        3.3306690738754696e-16,
        0.0,
        0.218414306640625,
        -1.8691146408400527e-07,
        2.2537994384765625,
        1.0
      ],
      "name": "Dresser"
    },
    {
      "mesh": 0,
      "name": "Dresser_Material #62_0"
    },
    {
      "children": [
        6
      ],
      "matrix": [
        -0.9999999999999889,
        1.2246467991473673e-16,
        -1.5099580265055075e-07,
        0.0,
        2.842715737862342e-14,
        1.1498354673385467,
        -1.8733198307256194e-07,
        0.0,
        3.7952045817555154e-08,
        -4.0949306069440294e-08,
        -0.2513450384139953,
        0.0,
        0.5607147216796875,
        13.216873168945313,
        -20.004913330078125,
        1.0
      ],
      "name": "DresserDrawer"
    },
    {
      "mesh": 1,
      "name": "DresserDrawer_Material #64_0"
    },
    {
      "children": [
        8
      ],
      "matrix": [
        -0.9999999999999887,
        1.2246469849340659e-16,
        -1.5099580265055077e-07,
        0.0,
        -1.5099580265055077e-07,
        -4.440892098500626e-16,
        0.9999999999999887,
        0.0,
        1.2246464555384738e-16,
        1.0,
        3.3306690738754696e-16,
        0.0,
        -0.3273773193359375,
        49.158267974853516,
        1.9401893615722656,
        1.0
      ],
      "name": "DresserCloth"
    },
    {
      "mesh": 2,
      "name": "DresserCloth_Material #66_0"
    },
    {
      "children": [
        10
      ],
      "matrix": [
        -5.5180892944335325,
        6.757710391837303e-16,
        -8.332083319125077e-07,
        0.0,
        3.709646258111983e-14,
        5.518089294433588,
        -2.412033346235511e-07,
        0.0,
        8.332083319125068e-07,
        -2.41203334623554e-07,
        -5.518089294433528,
        0.0,
        0.569061279296875,
        66.9947280883789,
        14.274955749511719,
        1.0
      ],
      "name": "DresserMirror"
    },
    {
      "children": [
        11
      ],
      "matrix": [
        1.0,
        0.0,
        -0.0,
        0.0,
        0.0,
        1.0,
        0.0,
        0.0,
        0.0,
        0.0,
        1.0,
        0.0,
        -4.254628658294678,
        5.8842644691467285,
        -0.0,
        1.0
      ],
      "name": "Object_10"
    },
    {
      "mesh": 3,
      "name": "DresserMirror_Material #65_0"
    },
    {
      "children": [
        13
      ],
      "matrix": [
        -0.9999999999999889,
        1.2246467991473673e-16,
        -1.5099580265055075e-07,
        0.0,
        2.842715737862342e-14,
        1.1498354673385467,
        -1.8733198307256194e-07,
        0.0,
        3.7952045817555154e-08,
        -4.0949306069440294e-08,
        -0.2513450384139953,
        0.0,
        0.5607147216796875,
        25.099964141845703,
        -10.134849548339844,
        1.0
      ],
      "name": "DresserDrawer001"
    },
    {
      "mesh": 4,
      "name": "DresserDrawer001_Material #64_0"
    },
    {
      "children": [
        15
      ],
      "matrix": [
        -0.9999999999999889,
        1.2246467991473673e-16,
        -1.5099580265055075e-07,
        0.0,
        2.842715737862342e-14,
        1.1498354673385467,
        -1.8733198307256194e-07,
        0.0,
        3.7952045817555154e-08,
        -4.0949306069440294e-08,
        -0.2513450384139953,
        0.0,
        0.5607147216796875,
        36.76076126098633,
        -10.134849548339844,
        1.0
      ],
      "name": "DresserDrawer002"
    },
    {
      "mesh": 5,
      "name": "DresserDrawer002_Material #64_0"
    }
  ],
  "samplers": [
    {
      "magFilter": 9729,
      "minFilter": 9987,
      "wrapS": 10497,
      "wrapT": 10497
    }
  ],
  "scene": 0,
  "scenes": [
    {
      "name": "Sketchfab_Scene",
      "nodes": [
        0
      ]
    }
  ],
  "textures": [
    {
      "sampler": 0,
      "source": 0
    },
    {
      "sampler": 0,
      "source": 1
    },
    {
      "sampler": 0,
      "source": 2
    },
    {
      "sampler": 0,
      "source": 3
    },
    {
      "sampler": 0,
      "source": 4
    },
    {
      "sampler": 0,
      "source": 5
    },
    {
      "sampler": 0,
      "source": 6
    },
    {
      "sampler": 0,
      "source": 7
    },
    {
      "sampler": 0,
      "source": 8
    },
    {
      "sampler": 0,
      "source": 9
    },
    {
      "sampler": 0,
      "source": 10
    },
    {
      "sampler": 0,
      "source": 11
    }
  ]
}
